<?xml version="1.0" encoding="UTF-8" standalone="no"?>
<!-- Created with Inkscape (http://www.inkscape.org/) -->
<svg
   xmlns:dc="http://purl.org/dc/elements/1.1/"
   xmlns:cc="http://web.resource.org/cc/"
   xmlns:rdf="http://www.w3.org/1999/02/22-rdf-syntax-ns#"
   xmlns:svg="http://www.w3.org/2000/svg"
   xmlns="http://www.w3.org/2000/svg"
   xmlns:xlink="http://www.w3.org/1999/xlink"
   xmlns:sodipodi="http://inkscape.sourceforge.net/DTD/sodipodi-0.dtd"
   xmlns:inkscape="http://www.inkscape.org/namespaces/inkscape"
   id="svg1339"
   sodipodi:version="0.32"
   inkscape:version="0.43"
   width="192.28pt"
   height="127.89pt"
   sodipodi:docbase="D:\Eigene Dateien\Eigene Bilder"
   sodipodi:docname="coupledpendulums.svg"
   version="1.0">
  <metadata
     id="metadata1344">
    <rdf:RDF>
      <cc:Work
         rdf:about="">
        <dc:format>image/svg+xml</dc:format>
        <dc:type
           rdf:resource="http://purl.org/dc/dcmitype/StillImage" />
      </cc:Work>
    </rdf:RDF>
  </metadata>
  <defs
     id="defs1342">
    <linearGradient
       id="linearGradient5085">
      <stop
         style="stop-color:#ffffff;stop-opacity:1;"
         offset="0"
         id="stop5089" />
      <stop
         id="stop5103"
         offset="1"
         style="stop-color:#000000;stop-opacity:1;" />
    </linearGradient>
    <marker
       inkscape:stockid="CurvyCross"
       orient="auto"
       refY="0"
       refX="0"
       id="CurvyCross"
       style="overflow:visible">
      <g
         id="g3182"
         transform="scale(0.6,0.6)">
        <path
           id="path3184"
           d="M 4.625493,-5.0456926 C 1.865493,-5.0456926 -0.37450702,-2.8056926 -0.37450702,-0.04569258 C -0.37450702,2.7143074 1.865493,4.9543074 4.625493,4.9543074"
           style="fill:none;fill-rule:evenodd;stroke:#000000;stroke-width:1pt;marker-start:none;marker-end:none" />
        <path
           id="path3186"
           d="M -5.4129913,-5.0456926 C -2.6529913,-5.0456926 -0.41299131,-2.8056926 -0.41299131,-0.04569258 C -0.41299131,2.7143074 -2.6529913,4.9543074 -5.4129913,4.9543074"
           style="fill:none;fill-rule:evenodd;stroke:#000000;stroke-width:1pt;marker-start:none;marker-end:none" />
      </g>
    </marker>
    <marker
       inkscape:stockid="Arrow2Send"
       orient="auto"
       refY="0"
       refX="0"
       id="Arrow2Send"
       style="overflow:visible">
      <path
         id="path3284"
         style="font-size:12px;fill-rule:evenodd;stroke-width:0.625;stroke-linejoin:round"
         d="M 8.7185878,4.0337352 L -2.2072895,0.016013256 L 8.7185884,-4.0017078 C 6.97309,-1.6296469 6.9831476,1.6157441 8.7185878,4.0337352 z "
         transform="matrix(-0.3,0,0,-0.3,1.5,0)" />
    </marker>
    <marker
       inkscape:stockid="Arrow1Lend"
       orient="auto"
       refY="0"
       refX="0"
       id="Arrow1Lend"
       style="overflow:visible">
      <path
         id="path3314"
         d="M 0,0 L 5,-5 L -12.5,0 L 5,5 L 0,0 z "
         style="fill-rule:evenodd;stroke:#000000;stroke-width:1pt;marker-start:none"
         transform="scale(-0.8,-0.8)" />
    </marker>
    <marker
       inkscape:stockid="Arrow1Mend"
       orient="auto"
       refY="0"
       refX="0"
       id="Arrow1Mend"
       style="overflow:visible">
      <path
         id="path3308"
         d="M 0,0 L 5,-5 L -12.5,0 L 5,5 L 0,0 z "
         style="fill-rule:evenodd;stroke:#000000;stroke-width:1pt;marker-start:none"
         transform="scale(-0.4,-0.4)" />
    </marker>
    <marker
       inkscape:stockid="Arrow1Lstart"
       orient="auto"
       refY="0"
       refX="0"
       id="Arrow1Lstart"
       style="overflow:visible">
      <path
         id="path3317"
         d="M 0,0 L 5,-5 L -12.5,0 L 5,5 L 0,0 z "
         style="fill-rule:evenodd;stroke:#000000;stroke-width:1pt;marker-start:none"
         transform="scale(0.8,0.8)" />
    </marker>
    <marker
       inkscape:stockid="DiamondL"
       orient="auto"
       refY="0"
       refX="0"
       id="DiamondL"
       style="overflow:visible">
      <path
         id="path3234"
         d="M -2.1579186e-005,-7.0710768 L -7.0710894,-8.9383918e-006 L -2.1579186e-005,7.0710589 L 7.0710462,-8.9383918e-006 L -2.1579186e-005,-7.0710768 z "
         style="fill-rule:evenodd;stroke:#000000;stroke-width:1pt;marker-start:none"
         transform="scale(0.8,0.8)" />
    </marker>
    <radialGradient
       inkscape:collect="always"
       xlink:href="#linearGradient5085"
       id="radialGradient5091"
       cx="51.38409"
       cy="83.405052"
       fx="51.38409"
       fy="83.405052"
       r="9.545373"
       gradientUnits="userSpaceOnUse" />
    <radialGradient
       inkscape:collect="always"
       xlink:href="#linearGradient5085"
       id="radialGradient5107"
       gradientUnits="userSpaceOnUse"
       cx="51.38409"
       cy="83.405052"
       fx="51.38409"
       fy="83.405052"
       r="9.545373" />
  </defs>
  <sodipodi:namedview
     inkscape:window-height="721"
     inkscape:window-width="1024"
     inkscape:pageshadow="2"
     inkscape:pageopacity="0.0"
     borderopacity="1.0"
     bordercolor="#666666"
     pagecolor="#ffffff"
     id="base"
     inkscape:zoom="3.4717335"
     inkscape:cx="120.175"
     inkscape:cy="79.931252"
     inkscape:window-x="-4"
     inkscape:window-y="-4"
     inkscape:current-layer="svg1339" />
  <path
     style="fill:none;fill-opacity:0.75;fill-rule:evenodd;stroke:#000000;stroke-width:1.13759911px;stroke-linecap:butt;stroke-linejoin:miter;stroke-opacity:1"
     d="M 32.536702,22.920113 L 61.120584,105.6092"
     id="path1350" />
  <path
     style="fill:none;fill-opacity:0.75;fill-rule:evenodd;stroke:#000000;stroke-width:1.13759911px;stroke-linecap:butt;stroke-linejoin:miter;stroke-opacity:1"
     d="M 154.0182,22.920113 L 206.0817,93.358964"
     id="path1352" />
  <path
     style="fill:none;fill-opacity:0.75;fill-rule:evenodd;stroke:#000000;stroke-width:0.56879956;stroke-linecap:butt;stroke-linejoin:miter;stroke-miterlimit:4;stroke-dasharray:none;stroke-opacity:1"
     d="M 154.0182,151.54758 L 154.0182,22.920113"
     id="path1354" />
  <path
     style="fill:none;fill-opacity:0.75;fill-rule:evenodd;stroke:#000000;stroke-width:0.56879956;stroke-linecap:butt;stroke-linejoin:miter;stroke-miterlimit:4;stroke-dasharray:none;stroke-opacity:1"
     d="M 32.536702,152.56844 L 32.536702,22.920113"
     id="path1356" />
  <path
     sodipodi:type="arc"
     style="fill:url(#radialGradient5091);fill-opacity:1;fill-rule:nonzero;stroke:#000000;stroke-width:0.551;stroke-miterlimit:4;stroke-dasharray:none;stroke-dashoffset:0;stroke-opacity:1"
     id="path1366"
     sodipodi:cx="51.38409"
     sodipodi:cy="83.405052"
     sodipodi:rx="8.869873"
     sodipodi:ry="8.869873"
     d="M 60.253963 83.405052 A 8.869873 8.869873 0 1 1  42.514217,83.405052 A 8.869873 8.869873 0 1 1  60.253963 83.405052 z"
     transform="matrix(1.137599,0,0,1.137599,6.0156,20.21492)" />
  <path
     sodipodi:nodetypes="ccccccccccccccccccccccccccccccccccccccccccccccccccc"
     d="M 201.3065,102.81293 L 179.4506,104.40836 C 178.86305,99.032333 180.39838,94.461075 183.15399,94.20951 C 187.47174,93.815333 189.29991,98.079527 189.8011,103.4935 C 190.41551,110.13033 185.12193,113.81148 181.84563,114.11058 C 178.56931,114.40968 172.20453,112.19201 171.55347,105.15937 C 171.05227,99.745396 172.5876,95.17414 175.34321,94.922575 C 179.66098,94.528395 181.48915,98.792585 181.99033,104.20656 C 182.60473,110.8434 177.31118,114.52455 174.03486,114.82364 C 170.75854,115.12274 164.39378,112.90507 163.74273,105.87242 C 163.24151,100.45846 164.77685,95.8872 167.53247,95.635636 C 171.85021,95.241458 173.67838,99.505646 174.17957,104.91962 C 174.79399,111.55646 169.50041,115.23761 166.2241,115.53672 C 162.94776,115.83581 156.58302,113.61814 155.93196,106.58548 C 155.43077,101.17152 156.9661,96.600261 159.72172,96.348697 C 164.03948,95.954519 165.86764,100.21871 166.36884,105.63267 C 166.98323,112.26952 161.68967,115.95067 158.41335,116.24978 C 155.13704,116.54887 148.77227,114.3312 148.12123,107.29854 C 147.62004,101.88457 149.15541,97.313317 151.911,97.061753 C 156.22874,96.667577 158.05691,100.93177 158.55812,106.34574 C 159.17251,112.98258 153.87896,116.66373 150.60261,116.96283 C 147.32633,117.26192 140.96157,115.04426 140.31051,108.0116 C 139.80933,102.59764 141.34464,98.026382 144.10026,97.774814 C 148.41801,97.380638 150.24617,101.64483 150.74736,107.0588 C 151.36179,113.69565 146.06821,117.37678 142.79189,117.67588 C 139.51555,117.97499 133.15081,115.75732 132.49976,108.72466 C 131.99856,103.3107 133.53392,98.73944 136.28952,98.487876 C 140.60727,98.093698 142.43544,102.35789 142.93663,107.77185 C 143.55103,114.40871 138.25746,118.08985 134.98114,118.38894 C 131.70482,118.68805 125.34004,116.47039 124.68901,109.43773 C 124.18782,104.02376 125.72317,99.452501 128.47874,99.200937 C 132.79652,98.806759 134.62469,103.07095 135.12588,108.48492 C 135.74028,115.12177 130.44671,118.8029 127.17039,119.10201 C 123.89407,119.4011 117.52931,117.18345 116.87826,110.15078 C 116.37708,104.73682 117.91243,100.16556 120.66801,99.913998 C 124.98577,99.51982 126.81395,103.78401 127.31515,109.19797 C 127.92956,115.83484 122.63597,119.51596 119.35966,119.81507 C 116.08333,120.11417 109.71857,117.8965 109.06753,110.86384 C 108.56631,105.44988 110.10168,100.87862 112.85727,100.62706 C 117.17502,100.23288 119.0032,104.49708 119.50438,109.91103 C 120.1188,116.54789 114.82523,120.22903 111.5489,120.52813 C 108.27259,120.82723 101.90783,118.60957 101.25677,111.57691 C 100.75558,106.16294 102.29092,101.59168 105.04652,101.34012 C 109.36428,100.94594 111.19246,105.21014 111.69366,110.6241 C 112.30806,117.26095 107.01448,120.94209 103.73815,121.2412 C 100.46184,121.54029 94.097069,119.32263 93.446049,112.28996 C 92.944839,106.876 94.480179,102.30474 97.23579,102.05318 C 101.55352,101.659 103.38171,105.9232 103.88291,111.33716 C 104.4973,117.97402 99.20373,121.65515 95.927439,121.95425 C 92.651089,122.25336 86.278489,119.95088 85.744839,112.82197 L 74.150199,113.88048"
     style="fill:none;fill-opacity:1;fill-rule:nonzero;stroke:#000000;stroke-width:0.8380813;stroke-miterlimit:4;stroke-dasharray:none;stroke-opacity:1"
     id="path5102" />
  <path
     style="fill:none;fill-opacity:0.75;fill-rule:evenodd;stroke:#000000;stroke-width:1.70639873;stroke-linecap:butt;stroke-linejoin:miter;stroke-miterlimit:4;stroke-dasharray:none;stroke-opacity:1"
     d="M 12.381051,23.204512 L 179.67751,23.204512"
     id="path4210" />
  <path
     sodipodi:type="arc"
     style="fill:url(#radialGradient5107);fill-opacity:1;fill-rule:nonzero;stroke:#000000;stroke-width:0.551;stroke-miterlimit:4;stroke-dasharray:none;stroke-dashoffset:0;stroke-opacity:1"
     id="path5105"
     sodipodi:cx="51.38409"
     sodipodi:cy="83.405052"
     sodipodi:rx="8.869873"
     sodipodi:ry="8.869873"
     d="M 60.253963 83.405052 A 8.869873 8.869873 0 1 1  42.514217,83.405052 A 8.869873 8.869873 0 1 1  60.253963 83.405052 z"
     transform="matrix(1.137599,0,0,1.137599,151.9401,6.080483)" />
  <path
     sodipodi:type="arc"
     style="fill:none;fill-opacity:1;fill-rule:nonzero;stroke:#000000;stroke-width:0.25099999;stroke-linecap:butt;stroke-linejoin:miter;stroke-miterlimit:4;stroke-dasharray:none;stroke-dashoffset:0;stroke-opacity:1"
     id="path5146"
     sodipodi:cx="62.036133"
     sodipodi:cy="21.163513"
     sodipodi:rx="39.532829"
     sodipodi:ry="39.532829"
     d="M 75.232463,58.428798 A 39.532829,39.532829 0 0 1 62.036134,60.696342"
     sodipodi:start="1.2304571"
     sodipodi:end="1.5707963"
     transform="matrix(1.137599,0,0,1.137599,-38.00654,-0.445898)"
     sodipodi:open="true" />
  <path
     sodipodi:type="arc"
     style="fill:none;fill-opacity:1;fill-rule:nonzero;stroke:#000000;stroke-width:0.25099999;stroke-linecap:butt;stroke-linejoin:miter;stroke-miterlimit:4;stroke-dasharray:none;stroke-dashoffset:0;stroke-opacity:1"
     id="path6023"
     sodipodi:cx="168.95699"
     sodipodi:cy="20.496817"
     sodipodi:rx="34.49295"
     sodipodi:ry="34.49295"
     d="M 189.54582,48.171059 A 34.49295,34.49295 0 0 1 168.95699,54.989767"
     sodipodi:start="0.93116502"
     sodipodi:end="1.5707963"
     sodipodi:open="true"
     transform="matrix(1.137599,0,0,1.137599,-38.32876,-0.445898)" />
  <g
     id="g80534"
     transform="translate(-84.89238,29.27688)">
    <path
       d="M 122.668,34.825 C 121.119,34.825 120.159,33.461 120.159,30.767 C 120.159,28.541 121.064,26.84 122.712,26.84 C 124.392,26.84 125.167,28.422 125.167,30.767 C 125.167,33.221 124.371,34.825 122.68,34.825 L 122.668,34.825 z M 124.217,30.352 C 124.206,28.803 123.715,27.548 122.657,27.548 C 121.686,27.548 121.108,28.868 121.108,30.352 L 124.217,30.352 z M 121.108,31.072 C 121.108,33.014 121.762,34.116 122.701,34.116 C 123.726,34.116 124.217,32.85 124.217,31.072 L 121.108,31.072 z "
       id="path80536" />
  </g>
  <path
     d="M 41.892585,61.134873 L 41.876585,61.134873 L 40.976585,61.620873 L 40.841585,61.086873 L 41.972585,60.480873 L 42.570585,60.480873 L 42.570585,65.661873 L 41.892585,65.661873 L 41.892585,61.134873 L 41.892585,61.134873 z "
     id="path80540" />
  <g
     id="g80542"
     transform="translate(-60.33808,28.98457)">
    <path
       d="M 221.55,27.145 C 220.001,27.145 219.041,25.781 219.041,23.087 C 219.041,20.861 219.946,19.16 221.594,19.16 C 223.274,19.16 224.049,20.742 224.049,23.087 C 224.049,25.542 223.253,27.145 221.562,27.145 L 221.55,27.145 z M 223.099,22.672 C 223.088,21.123 222.597,19.868 221.539,19.868 C 220.568,19.868 219.99,21.188 219.99,22.672 L 223.099,22.672 z M 219.99,23.392 C 219.99,25.334 220.644,26.436 221.583,26.436 C 222.608,26.436 223.099,25.17 223.099,23.392 L 219.99,23.392 z "
       id="path80544" />
  </g>
  <g
     id="g80546"
     transform="translate(-60.33808,28.98457)">
    <path
       d="M 224.145,28.704 L 224.145,28.274 L 224.695,27.74 C 226.018,26.481 226.616,25.811 226.624,25.03 C 226.624,24.504 226.369,24.018 225.596,24.018 C 225.126,24.018 224.735,24.257 224.496,24.456 L 224.273,23.962 C 224.631,23.659 225.142,23.436 225.739,23.436 C 226.855,23.436 227.325,24.201 227.325,24.942 C 227.325,25.898 226.632,26.671 225.54,27.723 L 225.125,28.106 L 225.125,28.122 L 227.452,28.122 L 227.452,28.704 L 224.145,28.704 L 224.145,28.704 z "
       id="path80548" />
  </g>
  <g
     id="g80550"
     transform="translate(-75.83067,41.55403)">
    <path
       d="M 139.24,87.482 C 139.24,86.937 139.229,86.489 139.197,86.053 L 140.037,86.053 L 140.08,86.904 L 140.113,86.904 C 140.407,86.403 140.899,85.933 141.771,85.933 C 142.491,85.933 143.037,86.369 143.266,86.991 L 143.288,86.991 C 143.452,86.697 143.659,86.468 143.877,86.303 C 144.193,86.063 144.543,85.932 145.044,85.932 C 145.742,85.932 146.778,86.39 146.778,88.223 L 146.778,91.332 L 145.84,91.332 L 145.84,88.343 C 145.84,87.329 145.469,86.718 144.694,86.718 C 144.149,86.718 143.723,87.122 143.559,87.591 C 143.516,87.722 143.483,87.896 143.483,88.071 L 143.483,91.333 L 142.545,91.333 L 142.545,88.169 C 142.545,87.329 142.174,86.718 141.443,86.718 C 140.843,86.718 140.406,87.198 140.254,87.678 C 140.199,87.82 140.177,87.984 140.177,88.147 L 140.177,91.333 L 139.239,91.333 L 139.239,87.482 L 139.24,87.482 z "
       id="path80552" />
  </g>
  <g
     id="g80554"
     transform="translate(-75.83067,41.55403)">
    <path
       d="M 149.924,88.486 L 149.908,88.486 L 149.008,88.972 L 148.873,88.438 L 150.004,87.832 L 150.602,87.832 L 150.602,93.013 L 149.924,93.013 L 149.924,88.486 L 149.924,88.486 z "
       id="path80556" />
  </g>
  <g
     id="g80558"
     transform="translate(-39.58385,38.6309)">
    <path
       d="M 252.892,76.959 C 252.892,76.414 252.881,75.966 252.849,75.53 L 253.689,75.53 L 253.732,76.381 L 253.765,76.381 C 254.06,75.879 254.551,75.41 255.423,75.41 C 256.143,75.41 256.689,75.846 256.918,76.468 L 256.94,76.468 C 257.104,76.174 257.311,75.945 257.529,75.78 C 257.845,75.54 258.195,75.409 258.696,75.409 C 259.394,75.409 260.43,75.867 260.43,77.7 L 260.43,80.809 L 259.492,80.809 L 259.492,77.82 C 259.492,76.806 259.121,76.195 258.346,76.195 C 257.801,76.195 257.375,76.599 257.211,77.068 C 257.168,77.199 257.135,77.373 257.135,77.548 L 257.135,80.81 L 256.197,80.81 L 256.197,77.646 C 256.197,76.806 255.826,76.195 255.095,76.195 C 254.495,76.195 254.059,76.675 253.906,77.155 C 253.851,77.297 253.829,77.461 253.829,77.624 L 253.829,80.81 L 252.891,80.81 L 252.891,76.959 L 252.892,76.959 z "
       id="path80560" />
  </g>
  <g
     id="g80562"
     transform="translate(-39.58385,38.6309)">
    <path
       d="M 262.055,82.49 L 262.055,82.06 L 262.605,81.526 C 263.928,80.267 264.526,79.597 264.534,78.816 C 264.534,78.29 264.279,77.804 263.506,77.804 C 263.036,77.804 262.645,78.043 262.406,78.242 L 262.183,77.748 C 262.541,77.445 263.052,77.222 263.649,77.222 C 264.765,77.222 265.235,77.987 265.235,78.728 C 265.235,79.684 264.542,80.457 263.45,81.509 L 263.035,81.892 L 263.035,81.908 L 265.362,81.908 L 265.362,82.49 L 262.055,82.49 z "
       id="path80564" />
  </g>
  <g
     id="g80566"
     transform="translate(-81.38462,38.04627)">
    <path
       d="M 139.27,40.559 L 140.23,40.559 L 140.23,48.305 L 139.27,48.305 L 139.27,40.559 z "
       id="path80568" />
  </g>
  <g
     id="g80570"
     transform="translate(-81.38462,38.04627)">
    <path
       d="M 143.594,45.458 L 143.578,45.458 L 142.678,45.944 L 142.543,45.41 L 143.674,44.804 L 144.272,44.804 L 144.272,49.985 L 143.594,49.985 L 143.594,45.458 L 143.594,45.458 z "
       id="path80572" />
  </g>
  <g
     id="g80574"
     transform="translate(-57.12263,31.03076)">
    <path
       d="M 248.478,30.503 L 249.438,30.503 L 249.438,38.249 L 248.478,38.249 L 248.478,30.503 z "
       id="path80576" />
  </g>
  <g
     id="g80578"
     transform="translate(-57.12263,31.03076)">
    <path
       d="M 251.28,39.929 L 251.28,39.499 L 251.83,38.965 C 253.153,37.706 253.751,37.036 253.759,36.255 C 253.759,35.729 253.504,35.243 252.731,35.243 C 252.261,35.243 251.87,35.482 251.631,35.681 L 251.408,35.187 C 251.766,34.884 252.277,34.661 252.874,34.661 C 253.99,34.661 254.46,35.426 254.46,36.167 C 254.46,37.123 253.767,37.896 252.675,38.948 L 252.26,39.331 L 252.26,39.347 L 254.587,39.347 L 254.587,39.929 L 251.28,39.929 z "
       id="path80580" />
  </g>
  <g
     id="g80582"
     transform="translate(-65.89203,36.58471)">
    <path
       d="M 188.51,56.905 L 188.531,56.905 C 188.662,56.72 188.847,56.49 189,56.305 L 190.549,54.483 L 191.705,54.483 L 189.665,56.654 L 191.989,59.763 L 190.822,59.763 L 189,57.232 L 188.509,57.777 L 188.509,59.762 L 187.56,59.762 L 187.56,52.016 L 188.509,52.016 L 188.509,56.905 L 188.51,56.905 z "
       id="path80584" />
  </g>
  <path
     style="fill:none;fill-opacity:0.75;fill-rule:evenodd;stroke:#000000;stroke-width:0.5;stroke-linecap:butt;stroke-linejoin:miter;stroke-miterlimit:4;stroke-dasharray:none;stroke-opacity:1"
     d="M 23.619325,23.807711 L 33.124663,15.742576"
     id="path1357"
     inkscape:tile-w="10.505338"
     inkscape:tile-h="9.065135"
     inkscape:tile-cx="28.371994"
     inkscape:tile-cy="19.298717" />
  <use
     x="0"
     y="0"
     inkscape:tiled-clone-of="#path1357"
     xlink:href="#path1357"
     id="use1409"
     width="240.35001"
     height="159.8625" />
  <use
     x="0"
     y="0"
     inkscape:tiled-clone-of="#path1357"
     xlink:href="#path1357"
     transform="translate(10.50534,-3.627548e-7)"
     id="use1411"
     width="240.35001"
     height="159.8625" />
  <use
     x="0"
     y="0"
     inkscape:tiled-clone-of="#path1357"
     xlink:href="#path1357"
     transform="translate(21.01068,-3.627548e-7)"
     id="use1413"
     width="240.35001"
     height="159.8625" />
  <use
     x="0"
     y="0"
     inkscape:tiled-clone-of="#path1357"
     xlink:href="#path1357"
     transform="translate(31.51601,-3.627548e-7)"
     id="use1415"
     width="240.35001"
     height="159.8625" />
  <use
     x="0"
     y="0"
     inkscape:tiled-clone-of="#path1357"
     xlink:href="#path1357"
     transform="translate(42.02135,-3.627548e-7)"
     id="use1417"
     width="240.35001"
     height="159.8625" />
  <use
     x="0"
     y="0"
     inkscape:tiled-clone-of="#path1357"
     xlink:href="#path1357"
     transform="translate(52.52669,-3.627548e-7)"
     id="use1419"
     width="240.35001"
     height="159.8625" />
  <use
     x="0"
     y="0"
     inkscape:tiled-clone-of="#path1357"
     xlink:href="#path1357"
     transform="translate(63.03203,-3.627548e-7)"
     id="use1421"
     width="240.35001"
     height="159.8625" />
  <use
     x="0"
     y="0"
     inkscape:tiled-clone-of="#path1357"
     xlink:href="#path1357"
     transform="translate(73.53737,-3.627548e-7)"
     id="use1423"
     width="240.35001"
     height="159.8625" />
  <use
     x="0"
     y="0"
     inkscape:tiled-clone-of="#path1357"
     xlink:href="#path1357"
     transform="translate(84.0427,-3.627548e-7)"
     id="use1425"
     width="240.35001"
     height="159.8625" />
  <use
     x="0"
     y="0"
     inkscape:tiled-clone-of="#path1357"
     xlink:href="#path1357"
     transform="translate(94.54804,-3.627548e-7)"
     id="use1427"
     width="240.35001"
     height="159.8625" />
  <use
     x="0"
     y="0"
     inkscape:tiled-clone-of="#path1357"
     xlink:href="#path1357"
     transform="translate(105.0534,-3.627548e-7)"
     id="use1429"
     width="240.35001"
     height="159.8625" />
  <use
     x="0"
     y="0"
     inkscape:tiled-clone-of="#path1357"
     xlink:href="#path1357"
     transform="translate(115.5587,-3.627548e-7)"
     id="use1431"
     width="240.35001"
     height="159.8625" />
  <use
     x="0"
     y="0"
     inkscape:tiled-clone-of="#path1357"
     xlink:href="#path1357"
     transform="translate(126.0641,-3.627548e-7)"
     id="use1433"
     width="240.35001"
     height="159.8625" />
  <use
     x="0"
     y="0"
     inkscape:tiled-clone-of="#path1357"
     xlink:href="#path1357"
     transform="translate(136.5694,-3.627548e-7)"
     id="use1435"
     width="240.35001"
     height="159.8625" />
</svg>
