<?xml version="1.0" encoding="UTF-8" standalone="no"?>
<!-- Created with Inkscape (http://www.inkscape.org/) -->
<svg
   xmlns:dc="http://purl.org/dc/elements/1.1/"
   xmlns:cc="http://creativecommons.org/ns#"
   xmlns:rdf="http://www.w3.org/1999/02/22-rdf-syntax-ns#"
   xmlns:svg="http://www.w3.org/2000/svg"
   xmlns="http://www.w3.org/2000/svg"
   xmlns:xlink="http://www.w3.org/1999/xlink"
   xmlns:sodipodi="http://sodipodi.sourceforge.net/DTD/sodipodi-0.dtd"
   xmlns:inkscape="http://www.inkscape.org/namespaces/inkscape"
   version="1.0"
   width="1175.9276"
   height="349.23209"
   id="svg5279"
   sodipodi:version="0.32"
   inkscape:version="0.46"
   sodipodi:docname="LC ladder circuit.svg"
   inkscape:output_extension="org.inkscape.output.svg.inkscape">
  <sodipodi:namedview
     inkscape:window-height="960"
     inkscape:window-width="1272"
     inkscape:pageshadow="2"
     inkscape:pageopacity="0.0"
     guidetolerance="10.0"
     gridtolerance="10.0"
     objecttolerance="10.0"
     borderopacity="1.0"
     bordercolor="#666666"
     pagecolor="#ffffff"
     id="base"
     showgrid="false"
     inkscape:zoom="0.62085722"
     inkscape:cx="832.85677"
     inkscape:cy="146.53141"
     inkscape:window-x="0"
     inkscape:window-y="0"
     inkscape:current-layer="svg5279"
     showguides="true"
     inkscape:guide-bbox="true" />
  <metadata
     id="metadata2719">
    <rdf:RDF>
      <cc:Work
         rdf:about="">
        <dc:format>image/svg+xml</dc:format>
        <dc:type
           rdf:resource="http://purl.org/dc/dcmitype/StillImage" />
      </cc:Work>
    </rdf:RDF>
  </metadata>
  <defs
     id="defs5281">
    <marker
       inkscape:stockid="Arrow1Lend"
       orient="auto"
       refY="0"
       refX="0"
       id="Arrow1Lend"
       style="overflow:visible">
      <path
         id="path4640"
         d="M 0,0 L 5,-5 L -12.5,0 L 5,5 L 0,0 z"
         style="fill-rule:evenodd;stroke:#000000;stroke-width:1pt;marker-start:none"
         transform="matrix(-0.8,0,0,-0.8,-10,0)" />
    </marker>
    <marker
       style="overflow:visible"
       id="Arrow2Lstart"
       refX="0"
       refY="0"
       orient="auto"
       inkscape:stockid="Arrow2Lstart">
      <path
         transform="matrix(1.1,0,0,1.1,1.1,0)"
         d="M 8.7185878,4.0337352 L -2.2072895,0.016013256 L 8.7185884,-4.0017078 C 6.97309,-1.6296469 6.9831476,1.6157441 8.7185878,4.0337352 z"
         style="font-size:12px;fill-rule:evenodd;stroke-width:0.625;stroke-linejoin:round"
         id="path5065" />
    </marker>
    <inkscape:path-effect
       effect="bend_path"
       id="path-effect4095"
       bendpath="M 1185.82,1388.16 C 1230.41,1348.66 1270.41,1353.01 1305.89,1389.46 "
       prop_scale="1"
       bendpath-nodetypes="cc" />
    <inkscape:path-effect
       effect="bend_path"
       id="path-effect4080"
       bendpath="M 1075.91,1344.31 C 1120.5,1304.81 1160.5,1309.16 1195.98,1345.61 "
       prop_scale="1"
       bendpath-nodetypes="cc" />
    <inkscape:path-effect
       bendpath-nodetypes="cc"
       prop_scale="1"
       bendpath="M 1248.08,1162.54 C 1292.67,1123.04 1332.67,1127.39 1368.15,1163.84 "
       id="path-effect3240"
       effect="bend_path" />
    <marker
       style="overflow:visible"
       id="Arrow2Lend"
       refX="0"
       refY="0"
       orient="auto"
       inkscape:stockid="Arrow2Lend">
      <path
         transform="matrix(-1.1,0,0,-1.1,-1.1,0)"
         d="M 8.7185878,4.0337352 L -2.2072895,0.016013256 L 8.7185884,-4.0017078 C 6.97309,-1.6296469 6.9831476,1.6157441 8.7185878,4.0337352 z"
         style="font-size:12px;fill-rule:evenodd;stroke-width:0.625;stroke-linejoin:round"
         id="path3460" />
    </marker>
    <linearGradient
       id="linearGradient3701"
       inkscape:collect="always">
      <stop
         id="stop3703"
         offset="0"
         style="stop-color:#000000;stop-opacity:1;" />
      <stop
         id="stop3705"
         offset="1"
         style="stop-color:#000000;stop-opacity:0;" />
    </linearGradient>
    <inkscape:perspective
       id="perspective2721"
       inkscape:persp3d-origin="372.04724 : 350.78739 : 1"
       inkscape:vp_z="744.09448 : 526.18109 : 1"
       inkscape:vp_y="0 : 1000 : 0"
       inkscape:vp_x="0 : 526.18109 : 1"
       sodipodi:type="inkscape:persp3d" />
    <linearGradient
       gradientUnits="userSpaceOnUse"
       y2="178.07646"
       x2="235.34442"
       y1="178.07646"
       x1="204.57684"
       id="linearGradient3713"
       xlink:href="#linearGradient3701"
       inkscape:collect="always" />
  </defs>
  <flowRoot
     transform="translate(10.410609,-1477.6253)"
     style="font-size:40px;font-style:normal;font-weight:normal;fill:#000000;fill-opacity:1;stroke:none;stroke-width:1px;stroke-linecap:butt;stroke-linejoin:miter;stroke-opacity:1;font-family:Bitstream Vera Sans"
     id="flowRoot6826"
     xml:space="preserve"><flowRegion
       id="flowRegion6828"><rect
         y="110.969"
         x="1148.0315"
         height="127.55905"
         width="230.06186"
         id="rect6830" /></flowRegion><flowPara
       id="flowPara6832" /></flowRoot>  <flowRoot
     transform="translate(10.410609,-1477.6253)"
     style="font-size:40px;font-style:normal;font-weight:normal;fill:#000000;fill-opacity:1;stroke:none;stroke-width:1px;stroke-linecap:butt;stroke-linejoin:miter;stroke-opacity:1;font-family:Bitstream Vera Sans"
     id="flowRoot6834"
     xml:space="preserve"><flowRegion
       id="flowRegion6836"><rect
         y="49.467312"
         x="1122.9752"
         height="243.72891"
         width="398.62204"
         id="rect6838" /></flowRegion><flowPara
       id="flowPara6840" /></flowRoot>  <rect
     width="1175.9276"
     height="349.23209"
     rx="0"
     ry="9.5108805"
     x="0"
     y="0"
     id="rect3527"
     style="fill:#dbdbe3;fill-opacity:1;stroke:none;stroke-width:1.5;stroke-miterlimit:4;stroke-dasharray:none;stroke-opacity:1" />
  <text
     sodipodi:linespacing="100%"
     x="260.1651"
     y="206.64987"
     id="text3270"
     xml:space="preserve"
     style="font-size:40px;font-style:normal;font-weight:normal;line-height:100%;fill:#000000;fill-opacity:1;stroke:none;stroke-width:1px;stroke-linecap:butt;stroke-linejoin:miter;stroke-opacity:1;font-family:Bitstream Vera Sans"><tspan
       x="260.1651"
       y="206.64987"
       id="tspan3272"
       style="fill:#000000">C<tspan
   style="font-size:24px;font-style:normal;font-variant:normal;font-weight:normal;font-stretch:normal;text-align:start;line-height:100%;writing-mode:lr-tb;text-anchor:start;font-family:Arial;-inkscape-font-specification:Arial"
   id="tspan3274">1</tspan></tspan></text>
  <g
     id="g3390"
     transform="translate(60.877769,31.211098)">
    <path
       style="opacity:1;fill:#000000;fill-opacity:1;fill-rule:nonzero;stroke:none;stroke-width:1.60000002;stroke-linecap:round;stroke-linejoin:miter;stroke-miterlimit:4;stroke-dasharray:none;stroke-dashoffset:0;stroke-opacity:1"
       d="M 1050.2812,92.4375 C 1049.8666,92.479803 1049.5539,92.833314 1049.5625,93.25 C 1049.5625,93.25 1049.5625,226.50355 1049.5625,228.78125 C 1049.5353,229.08307 1049.6809,229.37435 1049.9387,229.53366 C 1050.1965,229.69298 1050.5222,229.69298 1050.78,229.53366 C 1051.0378,229.37435 1051.1834,229.08307 1051.1562,228.78125 C 1051.1563,226.50328 1051.1562,93.25 1051.1562,93.25 C 1051.1607,93.022014 1051.0678,92.80292 1050.9007,92.647756 C 1050.7336,92.492592 1050.5082,92.416102 1050.2812,92.4375 L 1050.2812,92.4375 z"
       id="path5951" />
    <path
       id="path3396"
       style="font-size:12px;fill-rule:evenodd;stroke-width:0.625;stroke-linejoin:round"
       d="M 1043.2656,110.35662 L 1050.3368,91.127079 L 1057.408,110.35662 C 1053.2332,107.28455 1047.5213,107.30225 1043.2656,110.35662 z" />
  </g>
  <text
     sodipodi:linespacing="100%"
     x="1122.4385"
     y="198.57645"
     id="text5968"
     xml:space="preserve"
     style="font-size:40px;font-style:normal;font-weight:normal;line-height:100%;fill:#000000;fill-opacity:1;stroke:none;stroke-width:1px;stroke-linecap:butt;stroke-linejoin:miter;stroke-opacity:1;font-family:Bitstream Vera Sans"><tspan
       x="1122.4385"
       y="198.57645"
       id="tspan5970"
       style="fill:#000000"><tspan
         style="font-size:28px"
         id="tspan5972"><tspan
   style="font-size:36px;font-style:italic;font-variant:normal;font-weight:normal;font-stretch:normal;text-align:start;line-height:100%;writing-mode:lr-tb;text-anchor:start;font-family:Arial;-inkscape-font-specification:Arial Italic"
   id="tspan5974">V</tspan>o</tspan></tspan></text>
  <g
     transform="translate(-79.375591,58.716678)"
     id="g3529">
    <g
       id="g3531"
       transform="matrix(0,1,-1,0,310.6393,158.17051)"
       style="fill:#000000;fill-opacity:0.81568627;stroke:#000000;stroke-opacity:1">
      <rect
         style="fill:#000000;fill-opacity:0.81568627;stroke:#000000;stroke-width:1.50000024;stroke-miterlimit:4.0999999;stroke-dasharray:none;stroke-opacity:1"
         id="rect3533"
         y="-120.42857"
         x="-37.132141"
         ry="1.0035714"
         height="38.135715"
         width="5.0178571" />
      <rect
         style="fill:#000000;fill-opacity:0.81568627;stroke:#000000;stroke-width:1.50000024;stroke-miterlimit:4.0999999;stroke-dasharray:none;stroke-opacity:1"
         id="rect3535"
         y="-120.42857"
         x="-15.555355"
         ry="1.0035714"
         height="38.135715"
         width="5.0178571" />
    </g>
    <path
       style="fill:none;fill-rule:evenodd;stroke:#000000;stroke-width:1px;stroke-linecap:butt;stroke-linejoin:miter;stroke-opacity:1"
       d="M 412.00002,124.50629 L 412.00002,82.07989 L 412.00002,82.07989"
       id="path3537" />
    <path
       style="fill:none;fill-rule:evenodd;stroke:#000000;stroke-width:1px;stroke-linecap:butt;stroke-linejoin:miter;stroke-opacity:1"
       d="M 412.00002,145.7195 L 412.00002,186.02458"
       id="path3539" />
  </g>
  <path
     d="M 338.68538,104.21448 C 338.68668,107.56278 335.97278,110.27788 332.62448,110.27788 C 329.27608,110.27788 326.56218,107.56278 326.56348,104.21448 C 326.56218,100.86618 329.27608,98.151078 332.62448,98.151078 C 335.97278,98.151078 338.68668,100.86618 338.68538,104.21448 L 338.68538,104.21448 z"
     id="path3542"
     style="fill:#000000;fill-opacity:1;stroke:#000000;stroke-width:1.5;stroke-miterlimit:4;stroke-dasharray:none;stroke-opacity:1" />
  <path
     d="M 338.68538,281.88609 C 338.68668,285.23439 335.97278,287.94949 332.62448,287.94949 C 329.27608,287.94949 326.56218,285.23439 326.56348,281.88609 C 326.56218,278.53779 329.27608,275.82269 332.62448,275.82269 C 335.97278,275.82269 338.68668,278.53779 338.68538,281.88609 L 338.68538,281.88609 z"
     id="path3544"
     style="fill:#000000;fill-opacity:1;stroke:#000000;stroke-width:1.5;stroke-miterlimit:4;stroke-dasharray:none;stroke-opacity:1" />
  <path
     id="path3546"
     d="M 92.904951,104.21448 C 147.65086,104.21448 147.65086,104.21448 147.65086,104.21448"
     style="opacity:1;fill:#000000;fill-opacity:1;fill-rule:nonzero;stroke:#000000;stroke-width:1.60000014;stroke-linecap:round;stroke-linejoin:miter;stroke-miterlimit:4;stroke-dasharray:none;stroke-dashoffset:0;stroke-opacity:1" />
  <path
     id="path3549"
     d="M 258.87989,104.21448 L 436.02482,104.21448"
     style="opacity:1;fill:#000000;fill-opacity:1;fill-rule:nonzero;stroke:#000000;stroke-width:1.60000002;stroke-linecap:round;stroke-linejoin:miter;stroke-miterlimit:4;stroke-dasharray:none;stroke-dashoffset:0;stroke-opacity:1" />
  <path
     id="path3551"
     d="M 332.68584,104.49538 L 332.68584,179.81329"
     style="opacity:1;fill:#000000;fill-opacity:1;fill-rule:nonzero;stroke:#000000;stroke-width:1.60000002;stroke-linecap:round;stroke-linejoin:miter;stroke-miterlimit:4;stroke-dasharray:none;stroke-dashoffset:0;stroke-opacity:1" />
  <path
     id="path3553"
     d="M 332.68584,208.21829 L 332.68584,281.54619"
     style="opacity:1;fill:#000000;fill-opacity:1;fill-rule:nonzero;stroke:#000000;stroke-width:1.60000002;stroke-linecap:round;stroke-linejoin:miter;stroke-miterlimit:4;stroke-dasharray:none;stroke-dashoffset:0;stroke-opacity:1" />
  <g
     transform="translate(222.16264,59.056578)"
     id="g4896">
    <g
       id="g4898"
       transform="matrix(0,1,-1,0,310.6393,158.17051)"
       style="fill:#000000;fill-opacity:0.81568627;stroke:#000000;stroke-opacity:1">
      <rect
         style="fill:#000000;fill-opacity:0.81568627;stroke:#000000;stroke-width:1.50000024;stroke-miterlimit:4.0999999;stroke-dasharray:none;stroke-opacity:1"
         id="rect4900"
         y="-120.42857"
         x="-37.132141"
         ry="1.0035714"
         height="38.135715"
         width="5.0178571" />
      <rect
         style="fill:#000000;fill-opacity:0.81568627;stroke:#000000;stroke-width:1.50000024;stroke-miterlimit:4.0999999;stroke-dasharray:none;stroke-opacity:1"
         id="rect4902"
         y="-120.42857"
         x="-15.555355"
         ry="1.0035714"
         height="38.135715"
         width="5.0178571" />
    </g>
    <path
       style="fill:none;fill-rule:evenodd;stroke:#000000;stroke-width:1px;stroke-linecap:butt;stroke-linejoin:miter;stroke-opacity:1"
       d="M 412.00002,124.50629 L 412.00002,82.07989 L 412.00002,82.07989"
       id="path4904" />
    <path
       style="fill:none;fill-rule:evenodd;stroke:#000000;stroke-width:1px;stroke-linecap:butt;stroke-linejoin:miter;stroke-opacity:1"
       d="M 412.00002,145.7195 L 412.00002,186.02458"
       id="path4906" />
  </g>
  <path
     d="M 640.22361,104.55438 C 640.22491,107.90268 637.51101,110.61778 634.16271,110.61778 C 630.81431,110.61778 628.10041,107.90268 628.10171,104.55438 C 628.10041,101.20608 630.81431,98.490978 634.16271,98.490978 C 637.51101,98.490978 640.22491,101.20608 640.22361,104.55438 L 640.22361,104.55438 z"
     id="path4932"
     style="fill:#000000;fill-opacity:1;stroke:#000000;stroke-width:1.5;stroke-miterlimit:4;stroke-dasharray:none;stroke-opacity:1" />
  <path
     d="M 640.22361,282.22599 C 640.22491,285.57429 637.51101,288.28939 634.16271,288.28939 C 630.81431,288.28939 628.10041,285.57429 628.10171,282.22599 C 628.10041,278.87769 630.81431,276.16259 634.16271,276.16259 C 637.51101,276.16259 640.22491,278.87769 640.22361,282.22599 L 640.22361,282.22599 z"
     id="path4942"
     style="fill:#000000;fill-opacity:1;stroke:#000000;stroke-width:1.5;stroke-miterlimit:4;stroke-dasharray:none;stroke-opacity:1" />
  <path
     id="path4952"
     d="M 549.08709,104.55438 L 739.09176,104.55438"
     style="opacity:1;fill:#000000;fill-opacity:1;fill-rule:nonzero;stroke:#000000;stroke-width:1.5999999;stroke-linecap:round;stroke-linejoin:miter;stroke-miterlimit:4;stroke-dasharray:none;stroke-dashoffset:0;stroke-opacity:1" />
  <path
     id="path4954"
     d="M 634.22407,104.83528 L 634.22407,180.15319"
     style="opacity:1;fill:#000000;fill-opacity:1;fill-rule:nonzero;stroke:#000000;stroke-width:1.60000002;stroke-linecap:round;stroke-linejoin:miter;stroke-miterlimit:4;stroke-dasharray:none;stroke-dashoffset:0;stroke-opacity:1" />
  <path
     id="path4956"
     d="M 634.22407,208.55819 L 634.22407,281.88609"
     style="opacity:1;fill:#000000;fill-opacity:1;fill-rule:nonzero;stroke:#000000;stroke-width:1.60000002;stroke-linecap:round;stroke-linejoin:miter;stroke-miterlimit:4;stroke-dasharray:none;stroke-dashoffset:0;stroke-opacity:1" />
  <g
     transform="translate(524.3668,59.056578)"
     id="g4964">
    <g
       id="g4966"
       transform="matrix(0,1,-1,0,310.6393,158.17051)"
       style="fill:#000000;fill-opacity:0.81568627;stroke:#000000;stroke-opacity:1">
      <rect
         style="fill:#000000;fill-opacity:0.81568627;stroke:#000000;stroke-width:1.50000024;stroke-miterlimit:4.0999999;stroke-dasharray:none;stroke-opacity:1"
         id="rect4968"
         y="-120.42857"
         x="-37.132141"
         ry="1.0035714"
         height="38.135715"
         width="5.0178571" />
      <rect
         style="fill:#000000;fill-opacity:0.81568627;stroke:#000000;stroke-width:1.50000024;stroke-miterlimit:4.0999999;stroke-dasharray:none;stroke-opacity:1"
         id="rect4970"
         y="-120.42857"
         x="-15.555355"
         ry="1.0035714"
         height="38.135715"
         width="5.0178571" />
    </g>
    <path
       style="fill:none;fill-rule:evenodd;stroke:#000000;stroke-width:1px;stroke-linecap:butt;stroke-linejoin:miter;stroke-opacity:1"
       d="M 412.00002,124.50629 L 412.00002,82.07989 L 412.00002,82.07989"
       id="path4972" />
    <path
       style="fill:none;fill-rule:evenodd;stroke:#000000;stroke-width:1px;stroke-linecap:butt;stroke-linejoin:miter;stroke-opacity:1"
       d="M 412.00002,145.7195 L 412.00002,186.02458"
       id="path4974" />
  </g>
  <path
     d="M 942.42777,104.55438 C 942.42907,107.90268 939.71517,110.61778 936.36687,110.61778 C 933.01847,110.61778 930.30457,107.90268 930.30587,104.55438 C 930.30457,101.20608 933.01847,98.490978 936.36687,98.490978 C 939.71517,98.490978 942.42907,101.20608 942.42777,104.55438 L 942.42777,104.55438 z"
     id="path5000"
     style="fill:#000000;fill-opacity:1;stroke:#000000;stroke-width:1.5;stroke-miterlimit:4;stroke-dasharray:none;stroke-opacity:1" />
  <path
     d="M 942.42777,282.22599 C 942.42907,285.57429 939.71517,288.28939 936.36687,288.28939 C 933.01847,288.28939 930.30457,285.57429 930.30587,282.22599 C 930.30457,278.87769 933.01847,276.16259 936.36687,276.16259 C 939.71517,276.16259 942.42907,278.87769 942.42777,282.22599 L 942.42777,282.22599 z"
     id="path5010"
     style="fill:#000000;fill-opacity:1;stroke:#000000;stroke-width:1.5;stroke-miterlimit:4;stroke-dasharray:none;stroke-opacity:1" />
  <path
     id="path5020"
     d="M 849.81742,104.55438 L 993.24168,104.55438"
     style="opacity:1;fill:#000000;fill-opacity:1;fill-rule:nonzero;stroke:#000000;stroke-width:1.60000002;stroke-linecap:round;stroke-linejoin:miter;stroke-miterlimit:4;stroke-dasharray:none;stroke-dashoffset:0;stroke-opacity:1" />
  <path
     id="path5022"
     d="M 936.42823,104.83528 L 936.42823,180.15319"
     style="opacity:1;fill:#000000;fill-opacity:1;fill-rule:nonzero;stroke:#000000;stroke-width:1.60000002;stroke-linecap:round;stroke-linejoin:miter;stroke-miterlimit:4;stroke-dasharray:none;stroke-dashoffset:0;stroke-opacity:1" />
  <path
     id="path5024"
     d="M 936.42823,208.55819 L 936.42823,281.88609"
     style="opacity:1;fill:#000000;fill-opacity:1;fill-rule:nonzero;stroke:#000000;stroke-width:1.60000002;stroke-linecap:round;stroke-linejoin:miter;stroke-miterlimit:4;stroke-dasharray:none;stroke-dashoffset:0;stroke-opacity:1" />
  <path
     id="path3583"
     d="M 92.004201,281.88609 L 996.30678,281.88609"
     style="opacity:1;fill:#000000;fill-opacity:1;fill-rule:nonzero;stroke:#000000;stroke-width:1.60000002;stroke-linecap:round;stroke-linejoin:miter;stroke-miterlimit:4;stroke-dasharray:none;stroke-dashoffset:0;stroke-opacity:1" />
  <path
     id="path5036"
     d="M 995.16788,104.21448 L 1096.5318,104.21448"
     style="opacity:1;fill:#000000;fill-opacity:1;fill-rule:nonzero;stroke:#000000;stroke-width:1.60000002;stroke-linecap:round;stroke-linejoin:miter;stroke-miterlimit:4;stroke-dasharray:3.20000005, 9.60000014;stroke-dashoffset:0;stroke-opacity:1" />
  <path
     id="path5038"
     d="M 995.16788,281.88609 L 1096.5318,281.88609"
     style="opacity:1;fill:#000000;fill-opacity:1;fill-rule:nonzero;stroke:#000000;stroke-width:1.60000002;stroke-linecap:round;stroke-linejoin:miter;stroke-miterlimit:4;stroke-dasharray:3.20000005, 9.60000014;stroke-dashoffset:0;stroke-opacity:1" />
  <path
     d="M 98.313721,104.21448 C 98.315021,107.56278 95.601121,110.27788 92.252821,110.27788 C 88.904431,110.27788 86.190529,107.56278 86.191829,104.21448 C 86.190529,100.86618 88.904431,98.151078 92.252821,98.151078 C 95.601121,98.151078 98.315021,100.86618 98.313721,104.21448 L 98.313721,104.21448 z"
     id="path3587"
     style="fill:#ffffff;fill-opacity:1;stroke:#000000;stroke-width:1.5;stroke-miterlimit:4;stroke-dasharray:none;stroke-opacity:1" />
  <path
     d="M 98.313721,281.88609 C 98.315021,285.23439 95.601121,287.94939 92.252821,287.94939 C 88.904421,287.94939 86.190529,285.23439 86.191819,281.88609 C 86.190529,278.53779 88.904421,275.82269 92.252821,275.82269 C 95.601121,275.82269 98.315021,278.53779 98.313721,281.88609 L 98.313721,281.88609 z"
     id="path3589"
     style="fill:#ffffff;fill-opacity:1;stroke:#000000;stroke-width:1.5;stroke-miterlimit:4;stroke-dasharray:none;stroke-opacity:1" />
  <path
     id="path6197"
     style="opacity:1;fill:none;fill-opacity:1;fill-rule:nonzero;stroke:#000000;stroke-width:1.70000005;stroke-linecap:round;stroke-linejoin:round;stroke-miterlimit:4;stroke-dasharray:none;stroke-dashoffset:0;stroke-opacity:1"
     d="M 180.26812,82.836298 C 179.04072,82.698298 177.60392,82.821898 175.95942,83.061398 C 169.20472,84.044898 159.63922,89.261898 160.66502,103.8045 C 161.50992,115.7826 162.29342,116.9095 164.40062,119.7468 C 165.86162,121.7139 168.90362,121.9008 168.90362,121.9008 M 148.33872,103.7463 C 148.72462,100.8186 148.97062,93.612598 152.30232,88.989098 C 155.18932,84.982798 159.73472,83.324098 161.99752,83.061398 C 168.77792,82.274098 178.31772,89.261898 177.29192,103.8045 C 176.44702,115.7826 175.66352,116.9095 173.55632,119.7468 C 172.09532,121.7139 169.05332,121.9008 169.05332,121.9008 M 203.41742,82.836298 C 202.19002,82.698298 200.75322,82.821898 199.10872,83.061398 C 192.35402,84.044898 182.78852,89.261898 183.81432,103.8045 C 184.65922,115.7826 185.44272,116.9095 187.54992,119.7468 C 189.01092,121.7139 192.05292,121.9008 192.05292,121.9008 M 180.83812,82.836298 C 182.06552,82.698298 183.50232,82.821898 185.14682,83.061398 C 191.90152,84.044898 201.46702,89.261898 200.44122,103.8045 C 199.59632,115.7826 198.81282,116.9095 196.70562,119.7468 C 195.24462,121.7139 192.20262,121.9008 192.20262,121.9008 M 226.56662,82.836298 C 225.33932,82.698298 223.90252,82.821898 222.25802,83.061398 C 215.50322,84.044898 205.93772,89.261898 206.96352,103.8045 C 207.80842,115.7826 208.59192,116.9095 210.69922,119.7468 C 212.16012,121.7139 215.20212,121.9008 215.20212,121.9008 M 203.98742,82.836298 C 205.21472,82.698298 206.65152,82.821898 208.29602,83.061398 C 215.05072,84.044898 224.61632,89.261898 223.59052,103.8045 C 222.74562,115.7826 221.96202,116.9095 219.85482,119.7468 C 218.39392,121.7139 215.35182,121.9008 215.35182,121.9008 M 259.23012,103.7463 C 259.53602,101.3139 258.82452,94.409098 256.18582,89.507398 C 253.25062,84.054898 248.81942,83.000098 245.40722,83.061398 C 240.73112,83.148398 229.08692,89.261898 230.11272,103.8045 C 230.95772,115.7826 231.74122,116.9095 233.84842,119.7468 C 235.30932,121.7139 238.35142,121.9008 238.35142,121.9008 M 227.13662,82.836298 C 228.36402,82.698298 229.80072,82.821898 231.44532,83.061398 C 238.20002,84.044898 247.76552,89.261898 246.73972,103.8045 C 245.89482,115.7826 245.11132,116.9095 243.00402,119.7468 C 241.54312,121.7139 238.50112,121.9008 238.50112,121.9008"
     sodipodi:nodetypes="csssccssssccsssccsssccsssccsssccssssccsssc" />
  <path
     id="path3907"
     style="opacity:1;fill:none;fill-opacity:1;fill-rule:nonzero;stroke:#000000;stroke-width:1.70000005;stroke-linecap:round;stroke-linejoin:round;stroke-miterlimit:4;stroke-dasharray:none;stroke-dashoffset:0;stroke-opacity:1"
     d="M 469.38452,82.836298 C 468.15712,82.698298 466.72032,82.821898 465.07582,83.061398 C 458.32112,84.044898 448.75562,89.261898 449.78142,103.8045 C 450.62632,115.7826 451.40982,116.9095 453.51702,119.7468 C 454.97802,121.7139 458.02002,121.9008 458.02002,121.9008 M 437.45512,103.7463 C 437.84102,100.8186 438.08702,93.612598 441.41872,88.989098 C 444.30572,84.982798 448.85112,83.324098 451.11392,83.061398 C 457.89432,82.274098 467.43412,89.261898 466.40832,103.8045 C 465.56342,115.7826 464.77992,116.9095 462.67272,119.7468 C 461.21172,121.7139 458.16972,121.9008 458.16972,121.9008 M 492.53382,82.836298 C 491.30642,82.698298 489.86962,82.821898 488.22512,83.061398 C 481.47042,84.044898 471.90492,89.261898 472.93072,103.8045 C 473.77562,115.7826 474.55912,116.9095 476.66632,119.7468 C 478.12732,121.7139 481.16932,121.9008 481.16932,121.9008 M 469.95452,82.836298 C 471.18192,82.698298 472.61872,82.821898 474.26322,83.061398 C 481.01792,84.044898 490.58342,89.261898 489.55762,103.8045 C 488.71272,115.7826 487.92922,116.9095 485.82202,119.7468 C 484.36102,121.7139 481.31902,121.9008 481.31902,121.9008 M 515.68302,82.836298 C 514.45572,82.698298 513.01892,82.821898 511.37442,83.061398 C 504.61962,84.044898 495.05412,89.261898 496.07992,103.8045 C 496.92482,115.7826 497.70832,116.9095 499.81562,119.7468 C 501.27652,121.7139 504.31852,121.9008 504.31852,121.9008 M 493.10382,82.836298 C 494.33112,82.698298 495.76792,82.821898 497.41242,83.061398 C 504.16712,84.044898 513.73272,89.261898 512.70692,103.8045 C 511.86202,115.7826 511.07842,116.9095 508.97122,119.7468 C 507.51032,121.7139 504.46822,121.9008 504.46822,121.9008 M 548.34652,103.7463 C 548.65242,101.3139 547.94092,94.409098 545.30222,89.507398 C 542.36702,84.054898 537.93582,83.000098 534.52362,83.061398 C 529.84752,83.148398 518.20332,89.261898 519.22912,103.8045 C 520.07412,115.7826 520.85762,116.9095 522.96482,119.7468 C 524.42572,121.7139 527.46782,121.9008 527.46782,121.9008 M 516.25302,82.836298 C 517.48042,82.698298 518.91712,82.821898 520.56172,83.061398 C 527.31642,84.044898 536.88192,89.261898 535.85612,103.8045 C 535.01122,115.7826 534.22772,116.9095 532.12042,119.7468 C 530.65952,121.7139 527.61752,121.9008 527.61752,121.9008"
     sodipodi:nodetypes="csssccssssccsssccsssccsssccsssccssssccsssc" />
  <path
     id="path3909"
     style="opacity:1;fill:none;fill-opacity:1;fill-rule:nonzero;stroke:#000000;stroke-width:1.70000005;stroke-linecap:round;stroke-linejoin:round;stroke-miterlimit:4;stroke-dasharray:none;stroke-dashoffset:0;stroke-opacity:1"
     d="M 771.38632,82.836298 C 770.15892,82.698298 768.72212,82.821898 767.07762,83.061398 C 760.32292,84.044898 750.75742,89.261898 751.78322,103.8045 C 752.62812,115.7826 753.41162,116.9095 755.51882,119.7468 C 756.97982,121.7139 760.02182,121.9008 760.02182,121.9008 M 739.45692,103.7463 C 739.84282,100.8186 740.08882,93.612598 743.42052,88.989098 C 746.30752,84.982798 750.85292,83.324098 753.11572,83.061398 C 759.89612,82.274098 769.43592,89.261898 768.41012,103.8045 C 767.56522,115.7826 766.78172,116.9095 764.67452,119.7468 C 763.21352,121.7139 760.17152,121.9008 760.17152,121.9008 M 794.53562,82.836298 C 793.30822,82.698298 791.87142,82.821898 790.22692,83.061398 C 783.47222,84.044898 773.90672,89.261898 774.93252,103.8045 C 775.77742,115.7826 776.56092,116.9095 778.66812,119.7468 C 780.12912,121.7139 783.17112,121.9008 783.17112,121.9008 M 771.95632,82.836298 C 773.18372,82.698298 774.62052,82.821898 776.26502,83.061398 C 783.01972,84.044898 792.58522,89.261898 791.55942,103.8045 C 790.71452,115.7826 789.93102,116.9095 787.82382,119.7468 C 786.36282,121.7139 783.32082,121.9008 783.32082,121.9008 M 817.68482,82.836298 C 816.45752,82.698298 815.02072,82.821898 813.37622,83.061398 C 806.62142,84.044898 797.05592,89.261898 798.08172,103.8045 C 798.92662,115.7826 799.71012,116.9095 801.81742,119.7468 C 803.27832,121.7139 806.32032,121.9008 806.32032,121.9008 M 795.10562,82.836298 C 796.33292,82.698298 797.76972,82.821898 799.41422,83.061398 C 806.16892,84.044898 815.73452,89.261898 814.70872,103.8045 C 813.86382,115.7826 813.08022,116.9095 810.97302,119.7468 C 809.51212,121.7139 806.47002,121.9008 806.47002,121.9008 M 850.34832,103.7463 C 850.65422,101.3139 849.94272,94.409098 847.30402,89.507398 C 844.36882,84.054898 839.93762,83.000098 836.52542,83.061398 C 831.84932,83.148398 820.20512,89.261898 821.23092,103.8045 C 822.07592,115.7826 822.85942,116.9095 824.96662,119.7468 C 826.42752,121.7139 829.46962,121.9008 829.46962,121.9008 M 818.25482,82.836298 C 819.48222,82.698298 820.91892,82.821898 822.56352,83.061398 C 829.31822,84.044898 838.88372,89.261898 837.85792,103.8045 C 837.01302,115.7826 836.22952,116.9095 834.12222,119.7468 C 832.66132,121.7139 829.61932,121.9008 829.61932,121.9008"
     sodipodi:nodetypes="csssccssssccsssccsssccsssccsssccssssccsssc" />
  <path
     d="M 1096.5188,104.55163 C 1096.5201,107.89993 1093.8062,110.61503 1090.4579,110.61503 C 1087.1095,110.61503 1084.3956,107.89993 1084.3969,104.55163 C 1084.3956,101.20333 1087.1095,98.488228 1090.4579,98.488228 C 1093.8062,98.488228 1096.5201,101.20333 1096.5188,104.55163 L 1096.5188,104.55163 z"
     id="path4872"
     style="fill:#ffffff;fill-opacity:1;stroke:#000000;stroke-width:1.5;stroke-miterlimit:4;stroke-dasharray:none;stroke-opacity:1" />
  <path
     d="M 1096.5188,282.22323 C 1096.5201,285.57153 1093.8062,288.28663 1090.4579,288.28663 C 1087.1095,288.28663 1084.3956,285.57153 1084.3969,282.22323 C 1084.3956,278.87493 1087.1095,276.15983 1090.4579,276.15983 C 1093.8062,276.15983 1096.5201,278.87493 1096.5188,282.22323 L 1096.5188,282.22323 z"
     id="path4870"
     style="fill:#ffffff;fill-opacity:1;stroke:#000000;stroke-width:1.5;stroke-miterlimit:4;stroke-dasharray:none;stroke-opacity:1" />
  <g
     id="g3382"
     transform="translate(-23.287853,12.956628)">
    <path
       style="opacity:1;fill:#000000;fill-opacity:1;fill-rule:nonzero;stroke:none;stroke-width:1.60000002;stroke-linecap:round;stroke-linejoin:miter;stroke-miterlimit:4;stroke-dasharray:none;stroke-dashoffset:0;stroke-opacity:1"
       d="M 80.40625,99.875 C 80.028993,99.959287 79.765948,100.30124 79.78125,100.6875 C 79.78125,100.6875 79.78125,233.94091 79.78125,236.21875 C 79.78125,236.66748 80.145019,237.03125 80.59375,237.03125 C 81.042481,237.03125 81.40625,236.66748 81.40625,236.21875 C 81.40625,233.9409 81.40625,100.6875 81.40625,100.6875 C 81.418339,100.43349 81.30896,100.18887 81.111599,100.02851 C 80.914239,99.868157 80.652402,99.811171 80.40625,99.875 z"
       id="path4111" />
    <path
       id="path3388"
       style="font-size:12px;fill-rule:evenodd;stroke-width:0.625;stroke-linejoin:round"
       d="M 73.492858,117.77933 L 80.564049,98.54979 L 87.635238,117.77934 C 83.460411,114.70726 77.748522,114.72496 73.492858,117.77933 z" />
  </g>
  <text
     sodipodi:linespacing="100%"
     x="194.10786"
     y="60.078339"
     id="text3316"
     xml:space="preserve"
     style="font-size:40px;font-style:normal;font-weight:normal;line-height:100%;fill:#000000;fill-opacity:1;stroke:none;stroke-width:1px;stroke-linecap:butt;stroke-linejoin:miter;stroke-opacity:1;font-family:Bitstream Vera Sans"><tspan
       x="194.10786"
       y="60.078339"
       id="tspan3318"
       style="fill:#000000">L<tspan
   style="font-size:24px;font-style:normal;font-variant:normal;font-weight:normal;font-stretch:normal;text-align:start;line-height:100%;writing-mode:lr-tb;text-anchor:start;font-family:Arial;-inkscape-font-specification:Arial"
   id="tspan3268">1</tspan></tspan></text>
  <text
     sodipodi:linespacing="100%"
     x="15.281357"
     y="183.29794"
     id="text5980"
     xml:space="preserve"
     style="font-size:40px;font-style:normal;font-weight:normal;line-height:100%;fill:#000000;fill-opacity:1;stroke:none;stroke-width:1px;stroke-linecap:butt;stroke-linejoin:miter;stroke-opacity:1;font-family:Bitstream Vera Sans"><tspan
       x="15.281357"
       y="183.29794"
       id="tspan5982"
       style="fill:#000000"><tspan
         style="font-size:28px"
         id="tspan5984"><tspan
   style="font-size:36px;font-style:italic;font-variant:normal;font-weight:normal;font-stretch:normal;text-align:start;line-height:100%;writing-mode:lr-tb;text-anchor:start;font-family:Arial;-inkscape-font-specification:Arial Italic"
   id="tspan5986">V</tspan>i</tspan></tspan></text>
  <text
     sodipodi:linespacing="100%"
     x="478.59317"
     y="60.078339"
     id="text3310"
     xml:space="preserve"
     style="font-size:40px;font-style:normal;font-weight:normal;line-height:100%;fill:#000000;fill-opacity:1;stroke:none;stroke-width:1px;stroke-linecap:butt;stroke-linejoin:miter;stroke-opacity:1;font-family:Bitstream Vera Sans"><tspan
       x="478.59317"
       y="60.078339"
       id="tspan3312"
       style="fill:#000000">L<tspan
   style="font-size:24px;font-style:normal;font-variant:normal;font-weight:normal;font-stretch:normal;text-align:start;line-height:100%;writing-mode:lr-tb;text-anchor:start;font-family:Arial;-inkscape-font-specification:Arial"
   id="tspan3314">2</tspan></tspan></text>
  <text
     sodipodi:linespacing="100%"
     x="551.03973"
     y="206.64987"
     id="text3340"
     xml:space="preserve"
     style="font-size:40px;font-style:normal;font-weight:normal;line-height:100%;fill:#000000;fill-opacity:1;stroke:none;stroke-width:1px;stroke-linecap:butt;stroke-linejoin:miter;stroke-opacity:1;font-family:Bitstream Vera Sans"><tspan
       x="551.03973"
       y="206.64987"
       id="tspan3342"
       style="fill:#000000">C<tspan
   style="font-size:24px;font-style:normal;font-variant:normal;font-weight:normal;font-stretch:normal;text-align:start;line-height:100%;writing-mode:lr-tb;text-anchor:start;font-family:Arial;-inkscape-font-specification:Arial"
   id="tspan3344">2</tspan></tspan></text>
  <text
     sodipodi:linespacing="100%"
     x="859.20062"
     y="206.64987"
     id="text3911"
     xml:space="preserve"
     style="font-size:40px;font-style:normal;font-weight:normal;line-height:100%;fill:#000000;fill-opacity:1;stroke:none;stroke-width:1px;stroke-linecap:butt;stroke-linejoin:miter;stroke-opacity:1;font-family:Bitstream Vera Sans"><tspan
       x="859.20062"
       y="206.64987"
       id="tspan3913"
       style="fill:#000000">C<tspan
   style="font-size:24px;font-style:normal;font-variant:normal;font-weight:normal;font-stretch:normal;text-align:start;line-height:100%;writing-mode:lr-tb;text-anchor:start;font-family:Arial;-inkscape-font-specification:Arial"
   id="tspan3915">3</tspan></tspan></text>
  <text
     sodipodi:linespacing="100%"
     x="782.73975"
     y="60.078339"
     id="text3917"
     xml:space="preserve"
     style="font-size:40px;font-style:normal;font-weight:normal;line-height:100%;fill:#000000;fill-opacity:1;stroke:none;stroke-width:1px;stroke-linecap:butt;stroke-linejoin:miter;stroke-opacity:1;font-family:Bitstream Vera Sans"><tspan
       x="782.73975"
       y="60.078339"
       id="tspan3919"
       style="fill:#000000">L<tspan
   style="font-size:24px;font-style:normal;font-variant:normal;font-weight:normal;font-stretch:normal;text-align:start;line-height:100%;writing-mode:lr-tb;text-anchor:start;font-family:Arial;-inkscape-font-specification:Arial"
   id="tspan3921">3</tspan></tspan></text>
</svg>
