<?xml version="1.0" encoding="UTF-8" standalone="no"?>
<!-- Created with Inkscape (http://www.inkscape.org/) -->

<svg
   xmlns:dc="http://purl.org/dc/elements/1.1/"
   xmlns:cc="http://creativecommons.org/ns#"
   xmlns:rdf="http://www.w3.org/1999/02/22-rdf-syntax-ns#"
   xmlns:svg="http://www.w3.org/2000/svg"
   xmlns="http://www.w3.org/2000/svg"
   version="1.1"
   width="521.59174"
   height="319.84055"
   id="svg4303">
  <defs
     id="defs4305" />
  <metadata
     id="metadata4308">
    <rdf:RDF>
      <cc:Work
         rdf:about="">
        <dc:format>image/svg+xml</dc:format>
        <dc:type
           rdf:resource="http://purl.org/dc/dcmitype/StillImage" />
        <dc:title></dc:title>
      </cc:Work>
    </rdf:RDF>
  </metadata>
  <rect
     width="521.59174"
     height="319.84055"
     rx="0"
     ry="8.7104416"
     x="0"
     y="0"
     id="rect7986"
     style="fill:#efedf1;fill-opacity:1;stroke:none" />
  <path
     d="m 15.088094,79.508134 51.00625,0"
     id="path8229"
     style="fill:none;stroke:#000000;stroke-width:2.99999976;stroke-linecap:round;stroke-linejoin:miter;stroke-miterlimit:4;stroke-opacity:1;stroke-dasharray:none;stroke-dashoffset:0" />
  <path
     d="m 282.43984,167.75955 c 0.138,-1.2274 0.0144,-2.6642 -0.22511,-4.3087 -0.9835,-6.7547 -6.2005,-16.3202 -20.74309,-15.2944 -11.9781,0.8449 -13.105,1.6284 -15.9423,3.7356 -1.9671,1.461 -2.154,4.503 -2.154,4.503 m 18.1545,-20.5649 c 2.9277,0.3859 10.1337,0.6319 14.75719,3.9636 4.0063,2.887 5.665,7.4324 5.9277,9.6952 0.78731,6.7804 -6.2005,16.3202 -20.74309,15.2944 -11.9781,-0.8449 -13.105,-1.6284 -15.9423,-3.7356 -1.9671,-1.461 -2.154,-4.503 -2.154,-4.503 m 39.0645,34.3641 c 0.138,-1.2274 0.0144,-2.6642 -0.22511,-4.3087 -0.9835,-6.7547 -6.2005,-16.3202 -20.74309,-15.2944 -11.9781,0.8449 -13.105,1.6284 -15.9423,3.7356 -1.9671,1.461 -2.154,4.503 -2.154,4.503 m 39.0645,-11.2148 c 0.138,1.2274 0.0144,2.6642 -0.22511,4.3087 -0.9835,6.7547 -6.2005,16.3202 -20.74309,15.2944 -11.9781,-0.8449 -13.105,-1.6284 -15.9423,-3.7356 -1.9671,-1.461 -2.154,-4.503 -2.154,-4.503 m 39.0645,34.364 c 0.138,-1.2273 0.0144,-2.6641 -0.22511,-4.3086 -0.9835,-6.7548 -6.2005,-16.3203 -20.74309,-15.2945 -11.9781,0.8449 -13.105,1.6284 -15.9423,3.7357 -1.9671,1.4609 -2.154,4.5029 -2.154,4.5029 m 39.0645,-11.2147 c 0.138,1.2273 0.0144,2.6641 -0.22511,4.3086 -0.9835,6.7547 -6.2005,16.3203 -20.74309,15.2945 -11.9781,-0.8449 -13.105,-1.6285 -15.9423,-3.7357 -1.9671,-1.4609 -2.154,-4.503 -2.154,-4.503 m 18.1545,43.8783 c 2.4324,0.3059 9.3372,-0.4056 14.23889,-3.0443 5.4525,-2.9352 6.5073,-7.3664 6.446,-10.7786 -0.087,-4.6761 -6.2005,-16.3203 -20.74309,-15.2945 -11.9781,0.845 -13.105,1.6285 -15.9423,3.7357 -1.9671,1.4609 -2.154,4.503 -2.154,4.503 m 39.0645,-11.2148 c 0.138,1.2274 0.0144,2.6641 -0.22511,4.3087 -0.9835,6.7547 -6.2005,16.3202 -20.74309,15.2944 -11.9781,-0.8449 -13.105,-1.6284 -15.9423,-3.7357 -1.9671,-1.4609 -2.154,-4.5029 -2.154,-4.5029"
     id="path6197"
     style="fill:none;stroke:#000000;stroke-width:3;stroke-linecap:round;stroke-linejoin:round;stroke-miterlimit:4;stroke-opacity:1;stroke-dasharray:none;stroke-dashoffset:0" />
  <path
     d="m 261.47228,135.16205 0,-49.992004"
     id="path8291"
     style="fill:none;stroke:#000000;stroke-width:3;stroke-linecap:round;stroke-linejoin:miter;stroke-miterlimit:4;stroke-opacity:1;stroke-dasharray:none;stroke-dashoffset:0" />
  <path
     d="m 21.886554,79.508134 c 0.001,3.3483 -2.7126,6.0634 -6.0609,6.0634 -3.3484,0 -6.0623,-2.7151 -6.061,-6.0634 -10e-4,-3.3483 2.7126,-6.0634 6.061,-6.0634 3.3483,0 6.0622,2.7151 6.0609,6.0634 l 0,0 z"
     id="path3282"
     style="fill:#ffffff;fill-opacity:1;stroke:#000000;stroke-width:1.5;stroke-miterlimit:4;stroke-opacity:1;stroke-dasharray:none" />
  <path
     d="m 267.38526,79.508134 c 10e-4,3.3483 -2.7126,6.0634 -6.06091,6.0634 -3.34832,0 -6.06228,-2.7151 -6.06092,-6.0634 -0.001,-3.3484 2.7126,-6.0634 6.06091,-6.0634 3.34832,0 6.06228,2.715 6.06092,6.0634 l 0,0 z"
     id="path10687-1-5-2"
     style="fill:#000000;fill-opacity:1;stroke:#000000;stroke-width:1.5;stroke-miterlimit:4;stroke-opacity:1;stroke-dasharray:none" />
  <text
     x="1239.823"
     y="188.52319"
     id="text9458"
     xml:space="preserve"
     style="font-size:40px;font-style:normal;font-variant:normal;font-weight:normal;font-stretch:normal;line-height:125%;letter-spacing:0px;word-spacing:0px;fill:#000000;fill-opacity:1;stroke:none;font-family:CMU Sans Serif;-inkscape-font-specification:CMU Sans Serif"><tspan
       x="1239.823"
       y="188.52319"
       id="tspan9460" /></text>
  <path
     d="m 15.409704,296.96652 489.113236,0"
     id="path8229-1"
     style="fill:none;stroke:#000000;stroke-width:3;stroke-linecap:round;stroke-linejoin:miter;stroke-miterlimit:4;stroke-opacity:1;stroke-dasharray:none;stroke-dashoffset:0" />
  <path
     d="m 99.023324,58.662605 c -1.2274,-0.138 -2.6642,-0.0144 -4.3087,0.22511 -6.7547,0.9835 -16.3202,6.2005 -15.2944,20.74309 0.8449,11.9781 1.6284,13.105 3.7356,15.9423 1.461,1.9671 4.503,2.154 4.503,2.154 m -20.5649,-18.1545 c 0.3859,-2.9277 0.6319,-10.1337 3.9636,-14.75719 2.887,-4.0063 7.4324,-5.665 9.6952,-5.9277 6.7804,-0.78731 16.3202,6.2005 15.2944,20.74309 -0.8449,11.9781 -1.6284,13.105 -3.7356,15.9423 -1.461,1.9671 -4.503,2.154 -4.503,2.154 m 34.364096,-39.0645 c -1.2274,-0.138 -2.6642,-0.0144 -4.3087,0.22511 -6.7547,0.9835 -16.3202,6.2005 -15.2944,20.74309 0.8449,11.9781 1.6284,13.105 3.7356,15.9423 1.461,1.9671 4.503,2.154 4.503,2.154 m -11.214796,-39.0645 c 1.227396,-0.138 2.664196,-0.0144 4.308696,0.22511 6.7547,0.9835 16.3202,6.2005 15.2944,20.74309 -0.8449,11.9781 -1.6284,13.105 -3.7356,15.9423 -1.461,1.9671 -4.503,2.154 -4.503,2.154 m 34.364,-39.0645 c -1.2273,-0.138 -2.6641,-0.0144 -4.3086,0.22511 -6.7548,0.9835 -16.3203,6.2005 -15.2945,20.74309 0.8449,11.9781 1.6284,13.105 3.7357,15.9423 1.4609,1.9671 4.5029,2.154 4.5029,2.154 m -11.2147,-39.0645 c 1.2273,-0.138 2.6641,-0.0144 4.3086,0.22511 6.7547,0.9835 16.3203,6.2005 15.2945,20.74309 -0.8449,11.9781 -1.6285,13.105 -3.7357,15.9423 -1.4609,1.9671 -4.503,2.154 -4.503,2.154 m 43.8783,-18.1545 c 0.3059,-2.4324 -0.4056,-9.3372 -3.0443,-14.23889 -2.9352,-5.4525 -7.3664,-6.5073 -10.7786,-6.446 -4.6761,0.087 -16.3203,6.2005 -15.2945,20.74309 0.845,11.9781 1.6285,13.105 3.7357,15.9423 1.4609,1.9671 4.503,2.154 4.503,2.154 m -11.2148,-39.0645 c 1.2274,-0.138 2.6641,-0.0144 4.3087,0.22511 6.7547,0.9835 16.3202,6.2005 15.2944,20.74309 -0.8449,11.9781 -1.6284,13.105 -3.7357,15.9423 -1.4609,1.9671 -4.5029,2.154 -4.5029,2.154"
     id="path6197-7"
     style="fill:none;stroke:#000000;stroke-width:3;stroke-linecap:round;stroke-linejoin:round;stroke-miterlimit:4;stroke-opacity:1;stroke-dasharray:none;stroke-dashoffset:0" />
  <path
     d="m 365.48859,58.662605 c -1.2274,-0.138 -2.6642,-0.0144 -4.3087,0.22511 -6.7547,0.9835 -16.3202,6.2005 -15.2944,20.74309 0.8449,11.9781 1.6284,13.105 3.7356,15.9423 1.461,1.9671 4.503,2.154 4.503,2.154 m -20.5649,-18.1545 c 0.3859,-2.9277 0.6319,-10.1337 3.9636,-14.75719 2.887,-4.0063 7.4324,-5.665 9.6952,-5.9277 6.7804,-0.78731 16.3202,6.2005 15.2944,20.74309 -0.8449,11.9781 -1.6284,13.105 -3.7356,15.9423 -1.461,1.9671 -4.503,2.154 -4.503,2.154 m 34.3641,-39.0645 c -1.2274,-0.138 -2.6642,-0.0144 -4.3087,0.22511 -6.7547,0.9835 -16.3202,6.2005 -15.2944,20.74309 0.8449,11.9781 1.6284,13.105 3.7356,15.9423 1.461,1.9671 4.503,2.154 4.503,2.154 m -11.2148,-39.0645 c 1.2274,-0.138 2.6642,-0.0144 4.3087,0.22511 6.7547,0.9835 16.3202,6.2005 15.2944,20.74309 -0.8449,11.9781 -1.6284,13.105 -3.7356,15.9423 -1.461,1.9671 -4.503,2.154 -4.503,2.154 m 34.364,-39.0645 c -1.2273,-0.138 -2.6641,-0.0144 -4.3086,0.22511 -6.7548,0.9835 -16.3203,6.2005 -15.2945,20.74309 0.8449,11.9781 1.6284,13.105 3.7357,15.9423 1.4609,1.9671 4.5029,2.154 4.5029,2.154 m -11.2147,-39.0645 c 1.2273,-0.138 2.6641,-0.0144 4.3086,0.22511 6.7547,0.9835 16.3203,6.2005 15.2945,20.74309 -0.8449,11.9781 -1.6285,13.105 -3.7357,15.9423 -1.4609,1.9671 -4.503,2.154 -4.503,2.154 m 43.87831,-18.1545 c 0.3059,-2.4324 -0.4056,-9.3372 -3.0443,-14.23889 -2.9352,-5.4525 -7.36641,-6.5073 -10.77861,-6.446 -4.6761,0.087 -16.3203,6.2005 -15.2945,20.74309 0.845,11.9781 1.6285,13.105 3.7357,15.9423 1.4609,1.9671 4.503,2.154 4.503,2.154 m -11.2148,-39.0645 c 1.2274,-0.138 2.6641,-0.0144 4.3087,0.22511 6.7547,0.9835 16.3202,6.2005 15.2944,20.74309 -0.8449,11.9781 -1.6284,13.105 -3.7357,15.9423 -1.4609,1.9671 -4.5029,2.154 -4.5029,2.154"
     id="path6197-7-4"
     style="fill:none;stroke:#000000;stroke-width:3;stroke-linecap:round;stroke-linejoin:round;stroke-miterlimit:4;stroke-opacity:1;stroke-dasharray:none;stroke-dashoffset:0" />
  <path
     d="m 178.68224,79.508134 154.91873,0"
     id="path8229-0"
     style="fill:none;stroke:#000000;stroke-width:2.99999976;stroke-linecap:round;stroke-linejoin:miter;stroke-miterlimit:4;stroke-opacity:1;stroke-dasharray:none;stroke-dashoffset:0" />
  <path
     d="m 445.29932,79.508134 57.56396,0"
     id="path8229-9"
     style="fill:none;stroke:#000000;stroke-width:2.99999976;stroke-linecap:round;stroke-linejoin:miter;stroke-miterlimit:4;stroke-opacity:1;stroke-dasharray:none;stroke-dashoffset:0" />
  <path
     d="m 21.886554,296.96652 c 0.001,3.3483 -2.7126,6.0634 -6.0609,6.0634 -3.3484,0 -6.0623,-2.7151 -6.061,-6.0634 -10e-4,-3.3483 2.7126,-6.0634 6.061,-6.0634 3.3483,0 6.0622,2.7151 6.0609,6.0634 l 0,0 z"
     id="path3282-4"
     style="fill:#ffffff;fill-opacity:1;stroke:#000000;stroke-width:1.5;stroke-miterlimit:4;stroke-opacity:1;stroke-dasharray:none" />
  <path
     d="m 509.08077,296.96652 c 0.001,3.3483 -2.7126,6.0634 -6.0609,6.0634 -3.3484,0 -6.0623,-2.7151 -6.061,-6.0634 -10e-4,-3.3483 2.7126,-6.0634 6.061,-6.0634 3.3483,0 6.0622,2.7151 6.0609,6.0634 l 0,0 z"
     id="path3282-8"
     style="fill:#ffffff;fill-opacity:1;stroke:#000000;stroke-width:1.5;stroke-miterlimit:4;stroke-opacity:1;stroke-dasharray:none" />
  <path
     d="m 509.08077,79.508134 c 0.001,3.3483 -2.7126,6.0634 -6.0609,6.0634 -3.3484,0 -6.0623,-2.7151 -6.061,-6.0634 -10e-4,-3.3483 2.7126,-6.0634 6.061,-6.0634 3.3483,0 6.0622,2.7151 6.0609,6.0634 l 0,0 z"
     id="path3282-82"
     style="fill:#ffffff;fill-opacity:1;stroke:#000000;stroke-width:1.5;stroke-miterlimit:4;stroke-opacity:1;stroke-dasharray:none" />
  <path
     d="m 261.47228,297.0371 0,-49.992"
     id="path8291-4"
     style="fill:none;stroke:#000000;stroke-width:3;stroke-linecap:round;stroke-linejoin:miter;stroke-miterlimit:4;stroke-opacity:1;stroke-dasharray:none;stroke-dashoffset:0" />
  <path
     d="m 267.38526,296.96652 c 10e-4,3.3483 -2.7126,6.0634 -6.06091,6.0634 -3.34832,0 -6.06228,-2.7151 -6.06092,-6.0634 -0.001,-3.3484 2.7126,-6.0634 6.06091,-6.0634 3.34832,0 6.06228,2.715 6.06092,6.0634 l 0,0 z"
     id="path10687-1-5-2-5"
     style="fill:#000000;fill-opacity:1;stroke:#000000;stroke-width:1.5;stroke-miterlimit:4;stroke-opacity:1;stroke-dasharray:none" />
  <g
     transform="matrix(0.82514403,0,0,0.82514403,48.056864,-332.83568)"
     id="g3518"
     style="stroke-width:1.21190965;stroke-miterlimit:4;stroke-dasharray:none">
    <g
       transform="matrix(1.1141065,0,0,-1.1141065,-194.96864,1110.8606)"
       id="content"
       xml:space="preserve"
       style="font-style:normal;font-variant:normal;font-weight:normal;font-stretch:normal;letter-spacing:normal;word-spacing:normal;text-anchor:start;fill:none;stroke:#000000;stroke-width:1.0877862;stroke-linecap:butt;stroke-linejoin:miter;stroke-miterlimit:4;stroke-opacity:1;stroke-dasharray:none;stroke-dashoffset:0"><path
         d="m 501.66,436.39 0.04,0.16 0.04,0.16 0.04,0.15 0.04,0.14 0.04,0.14 0.04,0.13 0.04,0.12 0.05,0.11 0.05,0.11 0.05,0.11 0.07,0.09 0.06,0.09 0.08,0.09 0.08,0.08 0.09,0.07 0.09,0.07 0.11,0.06 0.12,0.06 0.13,0.05 0.14,0.05 0.15,0.04 0.09,0.02 0.08,0.02 0.09,0.02 0.09,0.02 0.1,0.01 0.1,0.02 0.1,0.01 0.11,0.01 0.11,0.02 0.12,0.01 0.12,0.01 0.12,0 0.13,0.01 0.13,0.01 0.14,0.01 0.14,0 0.15,0 0.15,0.01 0.16,0 0.16,0 0.17,0 0.17,0 c 1.14,0 1.6,0 1.6,1 0,0.55 -0.5,0.55 -1.35,0.55 h -6.58 c -1.29,0 -1.34,0 -1.93,-0.95 l -18.19,-28.39 -3.89,28.18 c -0.16,1.16 -0.25,1.16 -1.55,1.16 h -6.83 c -0.93,0 -1.48,0 -1.48,-0.95 0,-0.6 0.44,-0.6 1.44,-0.6 0.65,0 1.54,-0.04 2.14,-0.09 0.79,-0.11 1.09,-0.25 1.09,-0.8 0,-0.2 -0.05,-0.36 -0.19,-0.95 l -6.33,-25.36 c -0.5,-2 -1.34,-3.59 -5.39,-3.73 -0.25,0 -0.89,-0.05 -0.89,-0.96 0,-0.43 0.3,-0.59 0.71,-0.59 1.59,0 3.32,0.16 4.97,0.16 1.7,0 3.5,-0.16 5.14,-0.16 0.25,0 0.89,0 0.89,1 0,0.55 -0.55,0.55 -0.89,0.55 -2.85,0.04 -3.39,1.04 -3.39,2.18 0,0.35 0.04,0.6 0.2,1.14 l 6.76,27.16 h 0.07 l 4.28,-30.89 c 0.09,-0.59 0.14,-1.14 0.75,-1.14 0.54,0 0.84,0.55 1.09,0.89 l 20.13,31.55 h 0.04 l -7.12,-28.55 c -0.5,-1.95 -0.6,-2.34 -4.53,-2.34 -0.85,0 -1.39,0 -1.39,-0.96 0,-0.59 0.59,-0.59 0.75,-0.59 1.39,0 4.78,0.16 6.17,0.16 2.05,0 4.19,-0.16 6.23,-0.16 0.3,0 0.94,0 0.94,1 0,0.55 -0.45,0.55 -1.39,0.55 -1.84,0 -3.23,0 -3.23,0.89 0,0.2 0,0.29 0.25,1.2 z"
         id="path3521"
         style="fill:#000000;stroke-width:1.0877862;stroke-miterlimit:4;stroke-dasharray:none" /></g>  </g>
  <g
     transform="matrix(0.82514403,0,0,0.82514403,-212.53662,-504.94406)"
     id="g3583"
     style="stroke-width:1.21190965;stroke-miterlimit:4;stroke-dasharray:none">
    <g
       transform="matrix(1.1141065,0,0,-1.1141065,-194.96864,1110.8606)"
       id="g3585"
       xml:space="preserve"
       style="font-style:normal;font-variant:normal;font-weight:normal;font-stretch:normal;letter-spacing:normal;word-spacing:normal;text-anchor:start;fill:none;stroke:#000000;stroke-width:1.0877862;stroke-linecap:butt;stroke-linejoin:miter;stroke-miterlimit:4;stroke-opacity:1;stroke-dasharray:none;stroke-dashoffset:0"><path
         d="m 474.16,436.34 0.04,0.16 0.04,0.16 0.04,0.15 0.04,0.15 0.04,0.13 0.05,0.13 0.05,0.13 0.05,0.11 0.06,0.12 0.06,0.1 0.08,0.1 0.08,0.09 0.09,0.09 0.1,0.08 0.11,0.08 0.12,0.07 0.13,0.06 0.15,0.06 0.16,0.06 0.18,0.05 0.09,0.02 0.1,0.02 0.1,0.02 0.11,0.02 0.11,0.02 0.11,0.02 0.12,0.02 0.13,0.01 0.13,0.01 0.14,0.02 0.14,0.01 0.14,0.01 0.15,0.01 0.16,0.01 0.16,0.01 0.17,0.01 0.17,0 0.18,0.01 0.18,0 0.19,0.01 0.2,0 0.2,0 0.21,0 0.22,0 c 1.49,0 1.89,0 1.89,0.96 0,0.59 -0.54,0.59 -0.79,0.59 -1.66,0 -5.74,-0.16 -7.38,-0.16 -1.5,0 -5.14,0.16 -6.62,0.16 -0.36,0 -0.96,0 -0.96,-1 0,-0.55 0.46,-0.55 1.39,-0.55 0.11,0 1.05,0 1.91,-0.09 0.89,-0.11 1.34,-0.16 1.34,-0.8 0,-0.2 -0.06,-0.36 -0.2,-0.95 l -6.67,-26.75 c -0.5,-1.95 -0.61,-2.34 -4.55,-2.34 -0.84,0 -1.34,0 -1.34,-1 0,-0.55 0.45,-0.55 1.34,-0.55 h 23.08 c 1.19,0 1.23,0 1.55,0.84 l 3.92,10.77 c 0.2,0.55 0.2,0.64 0.2,0.7 0,0.19 -0.14,0.55 -0.59,0.55 -0.46,0 -0.5,-0.25 -0.85,-1.05 -1.7,-4.59 -3.89,-10.26 -12.51,-10.26 h -4.67 c -0.71,0 -0.8,0 -1.1,0.04 -0.5,0.05 -0.65,0.1 -0.65,0.5 0,0.14 0,0.25 0.25,1.14 z"
         id="path3587"
         style="fill:#000000;stroke-width:1.0877862;stroke-miterlimit:4;stroke-dasharray:none" /><path
         d="m 501.15,420.92 0,0.04 0,0.04 0,0.05 0,0.04 0,0.03 0,0.04 0,0.04 0,0.03 0,0.04 -0.01,0.03 0,0.03 0,0.03 0,0.03 -0.01,0.03 0,0.03 0,0.02 -0.01,0.03 0,0.02 -0.01,0.03 0,0.02 -0.01,0.04 -0.02,0.04 -0.02,0.03 -0.02,0.03 -0.02,0.03 -0.02,0.03 -0.03,0.02 -0.03,0.02 -0.03,0.02 -0.04,0.01 -0.04,0.01 -0.05,0.02 -0.02,0 -0.02,0 -0.03,0.01 -0.03,0 -0.02,0.01 -0.03,0 -0.03,0 -0.03,0 -0.03,0 -0.04,0.01 -0.03,0 -0.04,0 -0.03,0 -0.04,0 -0.04,0 -0.04,0 -0.04,0 -0.05,0 -0.04,0 -0.04,0 c -2.24,-2.2 -5.4,-2.23 -6.83,-2.23 v -1.25 c 0.84,0 3.14,0 5.04,0.97 v -17.77 c 0,-1.16 0,-1.61 -3.48,-1.61 h -1.31 v -1.25 c 0.62,0.03 4.9,0.14 6.2,0.14 1.08,0 5.47,-0.11 6.23,-0.14 v 1.25 h -1.32 c -3.49,0 -3.49,0.45 -3.49,1.61 z"
         id="path3589"
         style="fill:#000000;stroke-width:1.0877862;stroke-miterlimit:4;stroke-dasharray:none" /><path
         d="m 555.67,417.65 0.16,0 0.16,0 0.15,0.01 0.08,0 0.08,0.01 0.07,0 0.08,0.01 0.07,0.01 0.07,0.01 0.07,0.02 0.07,0.02 0.07,0.02 0.06,0.02 0.06,0.02 0.06,0.03 0.05,0.03 0.06,0.04 0.05,0.03 0.04,0.05 0.04,0.04 0.04,0.05 0.02,0.03 0.02,0.03 0.01,0.03 0.02,0.03 0.01,0.03 0.02,0.03 0.01,0.04 0.01,0.03 0.01,0.04 0,0.04 0.01,0.04 0.01,0.04 0,0.04 0.01,0.04 0,0.05 0,0.04 c 0,1 -0.91,1 -1.75,1 h -26.95 c -0.85,0 -1.74,0 -1.74,-1 0,-1 0.89,-1 1.74,-1 z"
         id="path3591"
         style="fill:#000000;stroke-width:1.0877862;stroke-miterlimit:4;stroke-dasharray:none" /><path
         d="m 618.78,436.39 0.04,0.16 0.04,0.16 0.03,0.15 0.04,0.14 0.04,0.14 0.04,0.13 0.05,0.12 0.05,0.11 0.05,0.11 0.05,0.11 0.06,0.09 0.07,0.09 0.07,0.09 0.08,0.08 0.09,0.07 0.1,0.07 0.11,0.06 0.12,0.06 0.13,0.05 0.14,0.05 0.15,0.04 0.08,0.02 0.09,0.02 0.09,0.02 0.09,0.02 0.1,0.01 0.1,0.02 0.1,0.01 0.11,0.01 0.11,0.02 0.11,0.01 0.12,0.01 0.13,0 0.13,0.01 0.13,0.01 0.14,0.01 0.14,0 0.15,0 0.15,0.01 0.16,0 0.16,0 0.17,0 0.17,0 c 1.14,0 1.59,0 1.59,1 0,0.55 -0.5,0.55 -1.34,0.55 h -6.58 c -1.3,0 -1.34,0 -1.94,-0.95 l -18.19,-28.39 -3.88,28.18 c -0.16,1.16 -0.25,1.16 -1.55,1.16 h -6.83 c -0.94,0 -1.49,0 -1.49,-0.95 0,-0.6 0.44,-0.6 1.44,-0.6 0.66,0 1.55,-0.04 2.14,-0.09 0.8,-0.11 1.1,-0.25 1.1,-0.8 0,-0.2 -0.05,-0.36 -0.19,-0.95 l -6.33,-25.36 c -0.5,-2 -1.34,-3.59 -5.39,-3.73 -0.25,0 -0.89,-0.05 -0.89,-0.96 0,-0.43 0.3,-0.59 0.7,-0.59 1.6,0 3.33,0.16 4.97,0.16 1.7,0 3.5,-0.16 5.14,-0.16 0.25,0 0.89,0 0.89,1 0,0.55 -0.54,0.55 -0.89,0.55 -2.84,0.04 -3.39,1.04 -3.39,2.18 0,0.35 0.05,0.6 0.2,1.14 l 6.77,27.16 h 0.06 l 4.29,-30.89 c 0.09,-0.59 0.13,-1.14 0.75,-1.14 0.54,0 0.84,0.55 1.09,0.89 l 20.12,31.55 h 0.05 l -7.13,-28.55 c -0.5,-1.95 -0.59,-2.34 -4.53,-2.34 -0.84,0 -1.39,0 -1.39,-0.96 0,-0.59 0.6,-0.59 0.75,-0.59 1.39,0 4.79,0.16 6.17,0.16 2.05,0 4.19,-0.16 6.24,-0.16 0.3,0 0.94,0 0.94,1 0,0.55 -0.46,0.55 -1.39,0.55 -1.85,0 -3.24,0 -3.24,0.89 0,0.2 0,0.29 0.25,1.2 z"
         id="path3593"
         style="fill:#000000;stroke-width:1.0877862;stroke-miterlimit:4;stroke-dasharray:none" /></g>  </g>
  <g
     transform="matrix(0.82514403,0,0,0.82514403,57.877614,-504.94406)"
     id="g3667"
     style="stroke-width:1.21190965;stroke-miterlimit:4;stroke-dasharray:none">
    <g
       transform="matrix(1.1141065,0,0,-1.1141065,-194.96864,1110.8606)"
       id="g3669"
       xml:space="preserve"
       style="font-style:normal;font-variant:normal;font-weight:normal;font-stretch:normal;letter-spacing:normal;word-spacing:normal;text-anchor:start;fill:none;stroke:#000000;stroke-width:1.0877862;stroke-linecap:butt;stroke-linejoin:miter;stroke-miterlimit:4;stroke-opacity:1;stroke-dasharray:none;stroke-dashoffset:0"><path
         d="m 474.16,436.34 0.04,0.16 0.04,0.16 0.04,0.15 0.04,0.15 0.04,0.13 0.05,0.13 0.05,0.13 0.05,0.11 0.06,0.12 0.06,0.1 0.08,0.1 0.08,0.09 0.09,0.09 0.1,0.08 0.11,0.08 0.12,0.07 0.13,0.06 0.15,0.06 0.16,0.06 0.18,0.05 0.09,0.02 0.1,0.02 0.1,0.02 0.11,0.02 0.11,0.02 0.11,0.02 0.12,0.02 0.13,0.01 0.13,0.01 0.14,0.02 0.14,0.01 0.14,0.01 0.15,0.01 0.16,0.01 0.16,0.01 0.17,0.01 0.17,0 0.18,0.01 0.18,0 0.19,0.01 0.2,0 0.2,0 0.21,0 0.22,0 c 1.49,0 1.89,0 1.89,0.96 0,0.59 -0.54,0.59 -0.79,0.59 -1.66,0 -5.74,-0.16 -7.38,-0.16 -1.5,0 -5.14,0.16 -6.62,0.16 -0.36,0 -0.96,0 -0.96,-1 0,-0.55 0.46,-0.55 1.39,-0.55 0.11,0 1.05,0 1.91,-0.09 0.89,-0.11 1.34,-0.16 1.34,-0.8 0,-0.2 -0.06,-0.36 -0.2,-0.95 l -6.67,-26.75 c -0.5,-1.95 -0.61,-2.34 -4.55,-2.34 -0.84,0 -1.34,0 -1.34,-1 0,-0.55 0.45,-0.55 1.34,-0.55 h 23.08 c 1.19,0 1.23,0 1.55,0.84 l 3.92,10.77 c 0.2,0.55 0.2,0.64 0.2,0.7 0,0.19 -0.14,0.55 -0.59,0.55 -0.46,0 -0.5,-0.25 -0.85,-1.05 -1.7,-4.59 -3.89,-10.26 -12.51,-10.26 h -4.67 c -0.71,0 -0.8,0 -1.1,0.04 -0.5,0.05 -0.65,0.1 -0.65,0.5 0,0.14 0,0.25 0.25,1.14 z"
         id="path3671"
         style="fill:#000000;stroke-width:1.0877862;stroke-miterlimit:4;stroke-dasharray:none" /><path
         d="m 507.07,405.11 h -1.18 c -0.1,-0.77 -0.46,-2.83 -0.91,-3.18 -0.27,-0.2 -2.95,-0.2 -3.44,-0.2 h -6.42 c 3.66,3.23 4.88,4.2 6.97,5.84 2.58,2.07 4.98,4.22 4.98,7.54 0,4.21 -3.68,6.79 -8.15,6.79 -4.31,0 -7.25,-3.03 -7.25,-6.23 0,-1.78 1.5,-1.96 1.86,-1.96 0.83,0 1.84,0.6 1.84,1.85 0,0.62 -0.25,1.84 -2.06,1.84 1.08,2.47 3.45,3.24 5.09,3.24 3.49,0 5.3,-2.71 5.3,-5.53 0,-3.04 -2.16,-5.44 -3.28,-6.69 l -8.39,-8.3 c -0.36,-0.31 -0.36,-0.39 -0.36,-1.36 h 14.36 z"
         id="path3673"
         style="fill:#000000;stroke-width:1.0877862;stroke-miterlimit:4;stroke-dasharray:none" /><path
         d="m 555.67,417.65 0.16,0 0.16,0 0.15,0.01 0.08,0 0.08,0.01 0.07,0 0.08,0.01 0.07,0.01 0.07,0.01 0.07,0.02 0.07,0.02 0.07,0.02 0.06,0.02 0.06,0.02 0.06,0.03 0.05,0.03 0.06,0.04 0.05,0.03 0.04,0.05 0.04,0.04 0.04,0.05 0.02,0.03 0.02,0.03 0.01,0.03 0.02,0.03 0.01,0.03 0.02,0.03 0.01,0.04 0.01,0.03 0.01,0.04 0,0.04 0.01,0.04 0.01,0.04 0,0.04 0.01,0.04 0,0.05 0,0.04 c 0,1 -0.91,1 -1.75,1 h -26.95 c -0.85,0 -1.74,0 -1.74,-1 0,-1 0.89,-1 1.74,-1 z"
         id="path3675"
         style="fill:#000000;stroke-width:1.0877862;stroke-miterlimit:4;stroke-dasharray:none" /><path
         d="m 618.78,436.39 0.04,0.16 0.04,0.16 0.03,0.15 0.04,0.14 0.04,0.14 0.04,0.13 0.05,0.12 0.05,0.11 0.05,0.11 0.05,0.11 0.06,0.09 0.07,0.09 0.07,0.09 0.08,0.08 0.09,0.07 0.1,0.07 0.11,0.06 0.12,0.06 0.13,0.05 0.14,0.05 0.15,0.04 0.08,0.02 0.09,0.02 0.09,0.02 0.09,0.02 0.1,0.01 0.1,0.02 0.1,0.01 0.11,0.01 0.11,0.02 0.11,0.01 0.12,0.01 0.13,0 0.13,0.01 0.13,0.01 0.14,0.01 0.14,0 0.15,0 0.15,0.01 0.16,0 0.16,0 0.17,0 0.17,0 c 1.14,0 1.59,0 1.59,1 0,0.55 -0.5,0.55 -1.34,0.55 h -6.58 c -1.3,0 -1.34,0 -1.94,-0.95 l -18.19,-28.39 -3.88,28.18 c -0.16,1.16 -0.25,1.16 -1.55,1.16 h -6.83 c -0.94,0 -1.49,0 -1.49,-0.95 0,-0.6 0.44,-0.6 1.44,-0.6 0.66,0 1.55,-0.04 2.14,-0.09 0.8,-0.11 1.1,-0.25 1.1,-0.8 0,-0.2 -0.05,-0.36 -0.19,-0.95 l -6.33,-25.36 c -0.5,-2 -1.34,-3.59 -5.39,-3.73 -0.25,0 -0.89,-0.05 -0.89,-0.96 0,-0.43 0.3,-0.59 0.7,-0.59 1.6,0 3.33,0.16 4.97,0.16 1.7,0 3.5,-0.16 5.14,-0.16 0.25,0 0.89,0 0.89,1 0,0.55 -0.54,0.55 -0.89,0.55 -2.84,0.04 -3.39,1.04 -3.39,2.18 0,0.35 0.05,0.6 0.2,1.14 l 6.77,27.16 h 0.06 l 4.29,-30.89 c 0.09,-0.59 0.13,-1.14 0.75,-1.14 0.54,0 0.84,0.55 1.09,0.89 l 20.12,31.55 h 0.05 l -7.13,-28.55 c -0.5,-1.95 -0.59,-2.34 -4.53,-2.34 -0.84,0 -1.39,0 -1.39,-0.96 0,-0.59 0.6,-0.59 0.75,-0.59 1.39,0 4.79,0.16 6.17,0.16 2.05,0 4.19,-0.16 6.24,-0.16 0.3,0 0.94,0 0.94,1 0,0.55 -0.46,0.55 -1.39,0.55 -1.85,0 -3.24,0 -3.24,0.89 0,0.2 0,0.29 0.25,1.2 z"
         id="path3677"
         style="fill:#000000;stroke-width:1.0877862;stroke-miterlimit:4;stroke-dasharray:none" /></g>  </g>
</svg>
