<?xml version="1.0" encoding="UTF-8" standalone="no"?>
<!-- Created with Serif DrawPlus 11, 0, 3, 23 (Feb 25, 14:12:55) (http://www.serif.com) -->

<svg
   xmlns:osb="http://www.openswatchbook.org/uri/2009/osb"
   xmlns:dc="http://purl.org/dc/elements/1.1/"
   xmlns:cc="http://creativecommons.org/ns#"
   xmlns:rdf="http://www.w3.org/1999/02/22-rdf-syntax-ns#"
   xmlns:svg="http://www.w3.org/2000/svg"
   xmlns="http://www.w3.org/2000/svg"
   xmlns:sodipodi="http://sodipodi.sourceforge.net/DTD/sodipodi-0.dtd"
   xmlns:inkscape="http://www.inkscape.org/namespaces/inkscape"
   version="1.1"
   width="122.37156"
   height="185.16382"
   id="svg2"
   inkscape:version="0.48.4 r9939"
   sodipodi:docname="Simple_pendulum_in_E_field.svg">
  <sodipodi:namedview
     pagecolor="#ffffff"
     bordercolor="#666666"
     borderopacity="1"
     objecttolerance="10"
     gridtolerance="10"
     guidetolerance="10"
     inkscape:pageopacity="0"
     inkscape:pageshadow="2"
     inkscape:window-width="1920"
     inkscape:window-height="1057"
     id="namedview44"
     showgrid="false"
     inkscape:zoom="2.617425"
     inkscape:cx="-21.404679"
     inkscape:cy="140.95522"
     inkscape:window-x="0"
     inkscape:window-y="23"
     inkscape:window-maximized="0"
     inkscape:current-layer="g3092"
     fit-margin-top="0"
     fit-margin-left="0"
     fit-margin-right="0"
     fit-margin-bottom="0" />
  <metadata
     id="metadata48">
    <rdf:RDF>
      <cc:Work
         rdf:about="">
        <dc:format>image/svg+xml</dc:format>
        <dc:type
           rdf:resource="http://purl.org/dc/dcmitype/StillImage" />
      </cc:Work>
    </rdf:RDF>
  </metadata>
  <defs
     id="defs46">
    <linearGradient
       id="linearGradient5431"
       osb:paint="solid">
      <stop
         style="stop-color:#1d9900;stop-opacity:1;"
         offset="0"
         id="stop5433" />
    </linearGradient>
  </defs>
  <g
     id="g3165"
     transform="translate(24.505209,2.5818205)">
    <path
       style="fill:#000000;fill-rule:evenodd"
       inkscape:connector-curvature="0"
       d="m 5.391,179.923 -0.008,-1.333 1.317,-2.675 -5.98,3.369 6.02,3.298 z"
       id="dp_path004" />
    <path
       style="fill:#000000"
       inkscape:connector-curvature="0"
       d="M 1.8038766,86.89 1.823829,83.69 0.8739524,83.679 0.854,86.879 z m 0.039905,-6.4 0.019952,-3.2 -0.94987661,-0.011 -0.0199524,3.2 z m 0.039905,-6.4 0.019952,-3.2 -0.94987652,-0.011 -0.0199524,3.2 z m 0.039905,-6.4 0.019952,-3.2 -0.94987653,-0.011 -0.0199524,3.2 z m 0.039905,-6.4 0.019952,-3.2 -0.9498765,-0.011 -0.019952,3.2 z m 0.039905,-6.4 0.019952,-3.2 -0.9498765,-0.011 -0.019952,3.2 z m 0.039905,-6.4 0.019952,-3.2 -0.9498766,-0.011 -0.019952,3.2 z m 0.039905,-6.4 0.01924,-3.2 -0.9505891,-0.011 -0.018527,3.2 z m 0.039192,-6.4 0.018527,-3.2 -0.9498765,-0.011 -0.01924,3.2 z m 0.03848,-6.4 0.01924,-3.2 -0.9498765,-0.011 -0.01924,3.2 z m 0.039192,-6.4 0.01924,-3.2 -0.9505892,-0.011 -0.018527,3.2 z m 0.039192,-6.4 0.018527,-3.2 -0.9498766,-0.011 -0.01924,3.2 z m 0.03848,-6.4 0.01924,-3.2 -0.9498766,-0.011 -0.01924,3.2 z M 2.3169382,3.69 2.3247766,2.391 1.849482,2.386 1.4960396,2.831 2.3995981,4.247 3.106483,3.356 1.3848763,0.658 1.3670616,3.679 z M 3.9209683,6.631 5.4416259,9.015 6.1485108,8.124 4.6278532,5.74 z m 3.0420278,4.768 1.5213702,2.384 0.7068849,-0.891 -1.5213702,-2.384 z m 3.0420279,4.768 1.52137,2.384 0.706885,-0.891 -1.52137,-2.384 z m 3.04274,4.768 1.520658,2.384 0.706885,-0.891 -1.520658,-2.384 z m 3.042028,4.768 1.52137,2.384 0.706885,-0.891 -1.52137,-2.384 z m 3.042028,4.768 1.52137,2.384 0.706885,-0.891 -1.52137,-2.384 z m 3.04274,4.768 1.520658,2.384 0.706885,-0.891 -1.520658,-2.384 z m 3.042028,4.768 1.52137,2.384 0.706885,-0.891 -1.52137,-2.384 z m 3.042028,4.768 1.52137,2.384 0.706885,-0.891 -1.52137,-2.384 z m 3.04274,4.768 1.520658,2.384 0.706885,-0.891 -1.520658,-2.384 z m 3.042028,4.768 1.52137,2.384 0.706885,-0.891 -1.52137,-2.384 z m 3.042028,4.768 1.52137,2.384 0.706885,-0.891 -1.52137,-2.384 z m 3.04274,4.768 1.520658,2.384 0.706885,-0.891 -1.520658,-2.384 z m 3.042028,4.768 1.52137,2.384 0.706885,-0.891 -1.52137,-2.384 z m 3.042028,4.768 1.52137,2.384 0.706885,-0.891 -1.52137,-2.384 z m 3.04274,4.768 1.520658,2.384 0.706885,-0.891 -1.520658,-2.384 z m 3.042028,4.768 1.52137,2.384 0.706885,-0.891 -1.52137,-2.384 z m 3.042028,4.768 1.52137,2.384 0.706885,-0.891 -1.52137,-2.384 z m 3.04274,4.768 1.520658,2.384 0.706885,-0.891 -1.520658,-2.384 z m 3.042028,4.768 1.52137,2.384 0.706885,-0.891 -1.52137,-2.384 z m 3.042028,4.768 1.52137,2.384 0.706885,-0.891 -1.52137,-2.384 z m 3.04274,4.768 1.520658,2.384 0.706885,-0.891 -1.520658,-2.384 z m 3.042028,4.768 1.52137,2.384 0.706885,-0.891 -1.52137,-2.384 z m 3.042028,4.768 1.52137,2.384 0.706885,-0.891 -1.52137,-2.384 z m 3.04274,4.768 1.520658,2.384 0.706885,-0.891 -1.520658,-2.384 z m 3.042028,4.768 1.52137,2.384 0.706885,-0.891 -1.52137,-2.384 z m 3.041315,4.767 1.519945,2.385 0.709023,-0.888 -1.519945,-2.385 z m 1.49643,3.708 -0.259381,0.328 -0.550116,0.678 -0.552254,0.676 -0.347742,0.42 0.621375,1.008 0.347742,-0.422 0.555816,-0.679 0.554392,-0.687 0.262944,-0.328 z m -3.594994,4.334 -0.564368,0.652 -0.566505,0.646 -0.570069,0.64 -0.06271,0.069 0.589308,1.045 0.06413,-0.072 0.574344,-0.645 0.571494,-0.651 0.568643,-0.654 z m -3.553664,3.971 -0.448217,0.48 -0.580757,0.617 -0.583608,0.611 -0.203086,0.209 0.564367,1.072 0.203087,-0.212 0.589308,-0.616 0.584321,-0.62 0.450354,-0.482 z m -3.654852,3.787 -0.313537,0.313 -0.594297,0.584 -0.596434,0.581 -0.359856,0.344 0.535865,1.102 0.361993,-0.35 0.599997,-0.584 0.599997,-0.589 0.314963,-0.313 z m -3.912807,3.746 -0.607123,0.558 -0.609261,0.548 -0.612823,0.545 -0.08337,0.073 0.505223,1.128 0.08551,-0.076 0.614961,-0.548 0.614961,-0.553 0.610686,-0.557 z m -3.84725,3.396 -0.447503,0.38 -0.622088,0.519 -0.623512,0.512 -0.262232,0.212 0.477433,1.155 0.262231,-0.215 0.628501,-0.517 0.626363,-0.524 0.451066,-0.38 z m -3.931334,3.196 -0.275771,0.216 -0.632776,0.487 -0.635626,0.481 -0.638477,0.478 0.446791,1.176 0.640615,-0.48 0.639189,-0.484 0.638477,-0.492 0.279333,-0.216 z m -4.197842,3.126 -0.547978,0.388 -0.646315,0.449 -0.647741,0.445 -0.193823,0.131 0.412587,1.2 0.195249,-0.133 0.652015,-0.448 0.652016,-0.452 0.551541,-0.391 z m -4.088816,2.773 -0.360568,0.233 -0.656292,0.419 -0.657716,0.411 -0.399048,0.245 0.381946,1.221 0.401186,-0.248 0.663417,-0.416 0.659854,-0.421 0.361993,-0.231 z m -4.321119,2.657 -0.666267,0.387 -0.66698,0.38 -0.669118,0.373 -0.103325,0.056 0.345604,1.243 0.105462,-0.059 0.674819,-0.378 0.672681,-0.383 0.66983,-0.387 z m -4.227057,2.339 -0.464606,0.244 -0.676957,0.347 -0.676956,0.341 -0.317813,0.157 0.317813,1.256 0.317101,-0.157 0.683369,-0.344 0.681945,-0.349 0.468168,-0.244 z m -4.284065,2.121 -0.258668,0.123 -0.684083,0.313 -0.68622,0.308 -0.688357,0.303 0.285034,1.272 0.690495,-0.305 0.689783,-0.311 0.689783,-0.316 0.262232,-0.12 z m -4.490714,1.963 -0.585745,0.239 -0.692634,0.274 -0.694771,0.268 -0.213775,0.08 0.247267,1.288 0.215201,-0.082 0.700471,-0.271 0.698334,-0.277 0.590021,-0.239 z m -4.385252,1.668 -0.37767,0.133 -0.699759,0.24 -0.701184,0.236 -0.429689,0.139 0.214488,1.299 0.431827,-0.142 0.706885,-0.236 0.705459,-0.242 0.381234,-0.134 z m -4.593326,1.491 -0.707598,0.208 -0.706885,0.2 -0.709735,0.196 -0.103325,0.026 0.178147,1.31 0.105462,-0.03 0.714011,-0.196 0.712586,-0.202 0.71116,-0.206 z m -4.461499,1.202 -0.505223,0.122 -0.712585,0.166 -0.714011,0.162 -0.309262,0.065 0.142517,1.317 0.313538,-0.068 0.718998,-0.161 0.718287,-0.167 0.507361,-0.121 z m -4.490001,0.974 -0.306412,0.058 -0.718286,0.131 -0.718999,0.125 -0.721137,0.119 0.111876,1.325 0.723274,-0.121 0.7247,-0.125 0.723987,-0.134 0.307837,-0.058 z m -4.721592,0.769 -0.62565,0.084 -0.723275,0.088 -0.723987,0.085 -0.188122,0.019 0.07055,1.331 0.191685,-0.022 0.729688,-0.085 0.728975,-0.091 0.629925,-0.081 z m -4.5291942,0.496 -0.445366,0.037 -0.7268373,0.055 -0.7261247,0.048 -0.3691193,0.02 0.039905,1.333 0.3691193,-0.022 0.7339632,-0.048 0.7325379,-0.055 0.448929,-0.037 z m -4.5391701,0.263 -0.2707825,0.01 -0.3384781,0.002 0.0057,1.333 0.345604,-0.004 0.2807588,-0.008 z"
       id="dp_path005" />
    <text
       style="font-size:21px;font-style:italic;font-weight:400;fill:#2f06cf;font-family:Arial"
       y="101.50528"
       x="39.583427"
       font-style="italic"
       font-weight="400"
       font-size="21"
       xml:space="preserve"
       id="dp_text001">L </text>
    <text
       style="font-size:21px;font-style:italic;font-weight:400;fill:#000000;font-family:Arial"
       y="249.94701"
       x="133.65131"
       font-style="italic"
       font-weight="400"
       font-size="21"
       xml:space="preserve"
       id="dp_text004" />
    <text
       id="dp_text007"
       xml:space="preserve"
       font-size="15"
       font-weight="400"
       font-style="italic"
       x="194.7077"
       y="159.414"
       style="font-size:15px;font-style:italic;font-weight:400;fill:#000000;font-family:Arial" />
    <text
       id="dp_text010"
       xml:space="preserve"
       font-size="15"
       font-weight="400"
       font-style="italic"
       x="77.388298"
       y="155.959"
       style="font-size:15px;font-style:italic;font-weight:400;fill:#000000;font-family:Arial" />
    <path
       style="fill:#ffffff;fill-rule:evenodd;stroke:#000000;stroke-width:1.21357238"
       inkscape:connector-curvature="0"
       d="M 18.386961,28.317512 C 13.872825,34.056371 7.9940234,37.199723 1.9151212,37.125165 l 0.2116,-34.2170438 z"
       id="dp_path036" />
    <path
       style="fill:#000000;fill-rule:evenodd"
       inkscape:connector-curvature="0"
       d="m 11.970693,57.59184 c 0.575,-0.014 1.155,-0.208 1.733,-0.586 0.564,-0.361 1.102,-0.846 1.612,-1.457 1.04,-1.277 1.848,-2.744 2.423,-4.399 0.277,-0.816 0.476,-1.608 0.593,-2.376 0.099,-0.765 0.096,-1.456 -0.01,-2.07 -0.095,-0.614 -0.3,-1.106 -0.615,-1.474 -0.329,-0.362 -0.779,-0.542 -1.351,-0.542 -0.558,0 -1.121,0.18 -1.684,0.542 -0.565,0.368 -1.11,0.86 -1.633,1.474 -1.071,1.296 -1.891,2.777 -2.457,4.446 -0.563,1.655 -0.7470002,3.122 -0.548,4.399 0.106,0.611 0.32,1.096 0.637,1.457 0.312,0.378 0.744,0.572 1.3,0.586 z m 3.943,-6.423 -0.384,1.129 c -0.495,1.459 -1.024,2.619 -1.586,3.482 -0.589,0.894 -1.196,1.346 -1.818,1.36 -0.592,-0.014 -0.878,-0.466 -0.852,-1.36 -0.004,-0.863 0.24,-2.023 0.734,-3.482 l 0.386,-1.129 z m -3.275,-0.719 0.463,-1.364 c 0.354,-1.045 0.802,-1.952 1.344,-2.72 0.276,-0.376 0.564,-0.677 0.86,-0.902 0.294,-0.216 0.592,-0.324 0.897,-0.324 0.328,0 0.565,0.108 0.713,0.324 0.143,0.225 0.224,0.526 0.246,0.902 -0.004,0.768 -0.184,1.675 -0.54,2.72 l -0.464,1.364 z"
       id="dp_path037" />
    <path
       style="fill:none;stroke:#2f06cf;stroke-width:2.26482081"
       inkscape:connector-curvature="0"
       d="M 0.79507539,0.68507539 85.540879,133.62892"
       id="dp_path038" />
    <path
       style="fill:#fa8909;fill-rule:evenodd;stroke:none"
       inkscape:connector-curvature="0"
       d="m 76.120647,125.01477 c 5.391,-4.794 13.65,-4.309 18.444,1.083 4.795,5.393 4.31,13.652 -1.082,18.445 -5.391,4.794 -13.65,4.31 -18.444,-1.084 -4.795,-5.393 -4.31,-13.65 1.082,-18.444 z"
       id="dp_path039" />
    <text
       style="font-size:15px;font-style:italic;font-weight:400;fill:#000000;font-family:Arial"
       y="140.25777"
       x="78.461647"
       font-style="italic"
       font-weight="400"
       font-size="15"
       xml:space="preserve"
       id="dp_text011">m </text>
    <g
       transform="matrix(0.75685569,0,0,0.62793886,-15.836864,-76.518356)"
       id="g3096">
      <path
         style="fill:#000000;fill-rule:evenodd"
         inkscape:connector-curvature="0"
         d="m 120.174,221.748 -2.667,0 -5.333,0 6.666,13.334 6.667,-13.334 z"
         id="path3098" />
      <path
         style="fill:#000000"
         inkscape:connector-curvature="0"
         d="m 117.506,133.428 0,88.32 2.666,0 0,-88.32 z"
         id="path3100" />
    </g>
    <g
       id="g3102"
       transform="matrix(0.75685569,0,0,0.62793886,-3.836864,-76.518356)">
      <path
         id="path3104"
         d="m 120.174,221.748 -2.667,0 -5.333,0 6.666,13.334 6.667,-13.334 z"
         inkscape:connector-curvature="0"
         style="fill:#000000;fill-rule:evenodd" />
      <path
         id="path3106"
         d="m 117.506,133.428 0,88.32 2.666,0 0,-88.32 z"
         inkscape:connector-curvature="0"
         style="fill:#000000" />
    </g>
    <g
       transform="translate(-34.849814,-47.817186)"
       id="g3132">
      <g
         style="font-style:normal;font-variant:normal;font-weight:normal;font-stretch:normal;letter-spacing:normal;word-spacing:normal;text-anchor:start;fill:none;stroke:#000000;stroke-linecap:butt;stroke-linejoin:miter;stroke-miterlimit:10.43299961;stroke-opacity:1;stroke-dasharray:none;stroke-dashoffset:0"
         id="content"
         transform="matrix(0.29109,0,0,-0.29109,-50.94075,191.26875)"
         xml:space="preserve"
         stroke-miterlimit="10.433"
         font-style="normal"
         font-variant="normal"
         font-weight="normal"
         font-stretch="normal"
         font-size-adjust="none"
         letter-spacing="normal"
         word-spacing="normal"><path
           style="fill:#000000;stroke-width:0"
           inkscape:connector-curvature="0"
           d="m 489.95,448.44 -0.07,-0.06 -0.07,-0.07 -0.08,-0.07 -0.08,-0.07 -0.08,-0.08 -0.09,-0.08 -0.09,-0.09 -0.1,-0.08 -0.09,-0.09 -0.1,-0.09 -0.19,-0.19 -0.2,-0.2 -0.19,-0.2 -0.09,-0.11 -0.09,-0.1 -0.09,-0.1 -0.08,-0.1 -0.08,-0.11 -0.08,-0.1 -0.07,-0.1 -0.07,-0.1 -0.05,-0.1 -0.06,-0.1 -0.04,-0.1 -0.04,-0.09 -0.03,-0.09 -0.03,-0.09 -0.01,-0.09 0,-0.09 c 0,-0.5 0.5,-1 1,-1 0.45,0 0.7,0.36 0.95,0.66 0.59,0.75 1.73,2.14 3.94,3.23 0.34,0.21 0.84,0.46 0.84,1.05 0,0.5 -0.34,0.75 -0.7,1 -1.1,0.75 -1.64,1.64 -2.05,2.83 -0.09,0.45 -0.3,1.11 -0.98,1.11 -0.71,0 -1,-0.66 -1,-1.05 0,-0.25 0.39,-1.84 1.18,-2.89 h -16.78 c -0.84,0 -1.75,0 -1.75,-1 0,-1 0.91,-1 1.75,-1 z"
           id="path3135" /><path
           style="fill:#000000;stroke-width:0"
           inkscape:connector-curvature="0"
           d="m 490.8,417.81 0.01,0.02 0.01,0.03 0.02,0.05 0.02,0.05 0.02,0.05 0.02,0.05 0.02,0.05 0.02,0.05 0.01,0.05 0.01,0.03 0.01,0.02 0.01,0.02 0.01,0.03 0,0.02 0.01,0.02 0.01,0.02 0,0.02 0.01,0.02 0,0.02 0.01,0.01 0,0.02 0,0.02 0,0.01 0,0.01 0.01,0.01 c 0,0.05 0,0.55 -0.6,0.55 -0.45,0 -0.55,-0.3 -0.64,-0.61 -3.25,-7.38 -5.08,-10.7 -13.61,-10.7 h -7.26 c -0.71,0 -0.8,0 -1.1,0.04 -0.5,0.05 -0.65,0.1 -0.65,0.5 0,0.14 0,0.25 0.25,1.14 l 3.39,13.61 h 4.93 c 4.24,0 4.24,-1.04 4.24,-2.29 0,-0.35 0,-0.96 -0.36,-2.44 -0.09,-0.25 -0.14,-0.41 -0.14,-0.55 0,-0.25 0.19,-0.55 0.64,-0.55 0.41,0 0.55,0.25 0.75,0.99 l 2.84,11.67 c 0,0.3 -0.25,0.55 -0.61,0.55 -0.43,0 -0.54,-0.3 -0.68,-0.91 -1.05,-3.78 -1.96,-4.92 -6.54,-4.92 h -4.68 l 3,12 c 0.43,1.75 0.5,1.94 2.68,1.94 h 7.02 c 6.08,0 7.58,-1.44 7.58,-5.53 0,-1.19 0,-1.29 -0.2,-2.64 0,-0.3 -0.05,-0.65 -0.05,-0.9 0,-0.25 0.15,-0.59 0.59,-0.59 0.56,0 0.61,0.3 0.71,1.25 l 1,8.61 c 0.14,1.34 -0.1,1.34 -1.35,1.34 h -25.15 c -1,0 -1.5,0 -1.5,-1 0,-0.54 0.45,-0.54 1.39,-0.54 1.84,0 3.23,0 3.23,-0.89 0,-0.21 0,-0.3 -0.25,-1.21 l -6.56,-26.34 c -0.5,-1.95 -0.61,-2.34 -4.55,-2.34 -0.84,0 -1.39,0 -1.39,-0.96 0,-0.59 0.45,-0.59 1.39,-0.59 h 25.86 c 1.16,0 1.2,0.05 1.55,0.84 z"
           id="path3137" /></g>    </g>
    <g
       id="g3092"
       transform="matrix(0.75685569,0,0,0.62793886,-27.836864,-76.518356)">
      <path
         id="dp_path013"
         d="m 120.174,221.748 -2.667,0 -5.333,0 6.666,13.334 6.667,-13.334 z"
         inkscape:connector-curvature="0"
         style="fill:#000000;fill-rule:evenodd" />
      <path
         id="dp_path014"
         d="m 117.506,133.428 0,88.32 2.666,0 0,-88.32 z"
         inkscape:connector-curvature="0"
         style="fill:#000000" />
      <path
         id="dp_path014-3"
         d="m 4.4019684,125.69058 73.2762796,0 0,-7.94578 -73.2762796,0 z"
         inkscape:connector-curvature="0"
         style="fill:#000000;fill-opacity:1" />
    </g>
  </g>
</svg>
