<?xml version="1.0" encoding="utf-8" standalone="no"?>
<!DOCTYPE svg PUBLIC "-//W3C//DTD SVG 1.1//EN"
  "http://www.w3.org/Graphics/SVG/1.1/DTD/svg11.dtd">
<!-- Created with matplotlib (http://matplotlib.org/) -->
<svg height="864pt" version="1.1" viewBox="0 0 432 864" width="432pt" xmlns="http://www.w3.org/2000/svg" xmlns:xlink="http://www.w3.org/1999/xlink">
 <defs>
  <style type="text/css">
*{stroke-linecap:butt;stroke-linejoin:round;stroke-miterlimit:100000;}
  </style>
 </defs>
 <g id="figure_1">
  <g id="patch_1">
   <path d="M 0 864 
L 432 864 
L 432 0 
L 0 0 
z
" style="fill:#ffffff;"/>
  </g>
  <g id="axes_1">
   <g id="line2d_1">
    <path clip-path="url(#p9104b1df76)" d="M 54 751.594737 
L 388.8 751.594737 
" style="fill:none;stroke:#808080;stroke-linecap:square;stroke-width:1.6;"/>
   </g>
   <g id="line2d_2">
    <path clip-path="url(#p9104b1df76)" d="M 54 597.410526 
L 388.8 597.410526 
" style="fill:none;stroke:#808080;stroke-linecap:square;stroke-width:1.6;"/>
   </g>
   <g id="line2d_3">
    <path clip-path="url(#p9104b1df76)" d="M 54 443.226316 
L 388.8 443.226316 
" style="fill:none;stroke:#808080;stroke-linecap:square;stroke-width:1.6;"/>
   </g>
   <g id="line2d_4">
    <path clip-path="url(#p9104b1df76)" d="M 54 289.042105 
L 388.8 289.042105 
" style="fill:none;stroke:#808080;stroke-linecap:square;stroke-width:1.6;"/>
   </g>
   <g id="line2d_5">
    <path clip-path="url(#p9104b1df76)" d="M 54 134.857895 
L 388.8 134.857895 
" style="fill:none;stroke:#808080;stroke-linecap:square;stroke-width:1.6;"/>
   </g>
   <g id="patch_2">
    <path clip-path="url(#p9104b1df76)" d="M 67.95 751.594737 
L 81.9 751.594737 
L 81.9 86.4 
L 67.95 86.4 
z
" style="fill:url(#h9af6203187);stroke:#000000;stroke-linejoin:miter;"/>
   </g>
   <g id="patch_3">
    <path clip-path="url(#p9104b1df76)" d="M 360.9 751.594737 
L 374.85 751.594737 
L 374.85 86.4 
L 360.9 86.4 
z
" style="fill:url(#h2e68de6b85);stroke:#000000;stroke-linejoin:miter;"/>
   </g>
   <g id="line2d_6">
    <path clip-path="url(#p9104b1df76)" d="M 81.9 751.594737 
L 87.593878 751.594737 
L 93.287755 751.594737 
L 98.981633 751.594737 
L 104.67551 751.594737 
L 110.369388 751.594737 
L 116.063265 751.594737 
L 121.757143 751.594737 
L 127.45102 751.594737 
L 133.144898 751.594737 
L 138.838776 751.594737 
L 144.532653 751.594737 
L 150.226531 751.594737 
L 155.920408 751.594737 
L 161.614286 751.594737 
L 167.308163 751.594737 
L 173.002041 751.594737 
L 178.695918 751.594737 
L 184.389796 751.594737 
L 190.083673 751.594737 
L 195.777551 751.594737 
L 201.471429 751.594737 
L 207.165306 751.594737 
L 212.859184 751.594737 
L 218.553061 751.594737 
L 224.246939 751.594737 
L 229.940816 751.594737 
L 235.634694 751.594737 
L 241.328571 751.594737 
L 247.022449 751.594737 
L 252.716327 751.594737 
L 258.410204 751.594737 
L 264.104082 751.594737 
L 269.797959 751.594737 
L 275.491837 751.594737 
L 281.185714 751.594737 
L 286.879592 751.594737 
L 292.573469 751.594737 
L 298.267347 751.594737 
L 303.961224 751.594737 
L 309.655102 751.594737 
L 315.34898 751.594737 
L 321.042857 751.594737 
L 326.736735 751.594737 
L 332.430612 751.594737 
L 338.12449 751.594737 
L 343.818367 751.594737 
L 349.512245 751.594737 
L 355.206122 751.594737 
L 360.9 751.594737 
" style="fill:none;stroke:#ff0000;stroke-linecap:square;stroke-width:2.0;"/>
   </g>
   <g id="line2d_7">
    <path clip-path="url(#p9104b1df76)" d="M 81.9 597.410526 
L 87.593878 594.588065 
L 93.287755 591.777201 
L 98.981633 588.989486 
L 104.67551 586.236374 
L 110.369388 583.52918 
L 116.063265 580.879027 
L 121.757143 578.296806 
L 127.45102 575.793127 
L 133.144898 573.378278 
L 138.838776 571.062183 
L 144.532653 568.85436 
L 150.226531 566.763879 
L 155.920408 564.799332 
L 161.614286 562.968792 
L 167.308163 561.27978 
L 173.002041 559.739237 
L 178.695918 558.353494 
L 184.389796 557.128244 
L 190.083673 556.068523 
L 195.777551 555.178685 
L 201.471429 554.462386 
L 207.165306 553.922571 
L 212.859184 553.561457 
L 218.553061 553.380528 
L 224.246939 553.380528 
L 229.940816 553.561457 
L 235.634694 553.922571 
L 241.328571 554.462386 
L 247.022449 555.178685 
L 252.716327 556.068523 
L 258.410204 557.128244 
L 264.104082 558.353494 
L 269.797959 559.739237 
L 275.491837 561.27978 
L 281.185714 562.968792 
L 286.879592 564.799332 
L 292.573469 566.763879 
L 298.267347 568.85436 
L 303.961224 571.062183 
L 309.655102 573.378278 
L 315.34898 575.793127 
L 321.042857 578.296806 
L 326.736735 580.879027 
L 332.430612 583.52918 
L 338.12449 586.236374 
L 343.818367 588.989486 
L 349.512245 591.777201 
L 355.206122 594.588065 
L 360.9 597.410526 
" style="fill:none;stroke:#ff0000;stroke-linecap:square;stroke-width:2.0;"/>
   </g>
   <g id="line2d_8">
    <path clip-path="url(#p9104b1df76)" d="M 81.9 443.226316 
L 87.593878 437.59299 
L 93.287755 432.052164 
L 98.981633 426.694817 
L 104.67551 421.608916 
L 110.369388 416.877973 
L 116.063265 412.579669 
L 121.757143 408.784582 
L 127.45102 405.555027 
L 133.144898 402.944033 
L 138.838776 400.994474 
L 144.532653 399.73836 
L 150.226531 399.196318 
L 155.920408 399.377246 
L 161.614286 400.278176 
L 167.308163 401.884312 
L 173.002041 404.169283 
L 178.695918 407.09557 
L 184.389796 410.615122 
L 190.083673 414.670149 
L 195.777551 419.194068 
L 201.471429 424.112595 
L 207.165306 429.34497 
L 212.859184 434.805275 
L 218.553061 440.403854 
L 224.246939 446.048778 
L 229.940816 451.647356 
L 235.634694 457.107662 
L 241.328571 462.340036 
L 247.022449 467.258564 
L 252.716327 471.782482 
L 258.410204 475.83751 
L 264.104082 479.357062 
L 269.797959 482.283348 
L 275.491837 484.568319 
L 281.185714 486.174456 
L 286.879592 487.075385 
L 292.573469 487.256314 
L 298.267347 486.714271 
L 303.961224 485.458158 
L 309.655102 483.508598 
L 315.34898 480.897605 
L 321.042857 477.66805 
L 326.736735 473.872963 
L 332.430612 469.574659 
L 338.12449 464.843715 
L 343.818367 459.757815 
L 349.512245 454.400468 
L 355.206122 448.859641 
L 360.9 443.226316 
" style="fill:none;stroke:#ff0000;stroke-linecap:square;stroke-width:2.0;"/>
   </g>
   <g id="line2d_9">
    <path clip-path="url(#p9104b1df76)" d="M 81.9 289.042105 
L 87.593878 280.621065 
L 93.287755 272.510606 
L 98.981633 265.009857 
L 104.67551 258.395458 
L 110.369388 252.911359 
L 116.063265 248.759823 
L 121.757143 246.093965 
L 127.45102 245.012107 
L 133.144898 245.55415 
L 138.838776 247.700102 
L 144.532653 251.370816 
L 150.226531 256.430911 
L 155.920408 262.693762 
L 161.614286 269.928385 
L 167.308163 277.867953 
L 173.002041 286.219643 
L 178.695918 294.675431 
L 184.389796 302.923451 
L 190.083673 310.659505 
L 195.777551 317.598272 
L 201.471429 323.48384 
L 207.165306 328.099138 
L 212.859184 331.273947 
L 218.553061 332.891175 
L 224.246939 332.891175 
L 229.940816 331.273947 
L 235.634694 328.099138 
L 241.328571 323.48384 
L 247.022449 317.598272 
L 252.716327 310.659505 
L 258.410204 302.923451 
L 264.104082 294.675431 
L 269.797959 286.219643 
L 275.491837 277.867953 
L 281.185714 269.928385 
L 286.879592 262.693762 
L 292.573469 256.430911 
L 298.267347 251.370816 
L 303.961224 247.700102 
L 309.655102 245.55415 
L 315.34898 245.012107 
L 321.042857 246.093965 
L 326.736735 248.759823 
L 332.430612 252.911359 
L 338.12449 258.395458 
L 343.818367 265.009857 
L 349.512245 272.510606 
L 355.206122 280.621065 
L 360.9 289.042105 
" style="fill:none;stroke:#ff0000;stroke-linecap:square;stroke-width:2.0;"/>
   </g>
   <g id="line2d_10">
    <path clip-path="url(#p9104b1df76)" d="M 81.9 134.857895 
L 87.593878 123.683743 
L 93.287755 113.240495 
L 98.981633 104.211248 
L 104.67551 97.186606 
L 110.369388 92.626053 
L 116.063265 90.827897 
L 121.757143 91.909755 
L 127.45102 95.800862 
L 133.144898 102.246701 
L 138.838776 110.825647 
L 144.532653 120.976549 
L 150.226531 132.035433 
L 155.920408 143.278935 
L 161.614286 153.971615 
L 167.308163 163.414061 
L 173.002041 170.988641 
L 178.695918 176.199898 
L 184.389796 178.706964 
L 190.083673 178.34585 
L 195.777551 175.140177 
L 201.471429 169.299629 
L 207.165306 161.206238 
L 212.859184 151.389394 
L 218.553061 140.49122 
L 224.246939 129.224569 
L 229.940816 118.326396 
L 235.634694 108.509552 
L 241.328571 100.41616 
L 247.022449 94.575612 
L 252.716327 91.369939 
L 258.410204 91.008825 
L 264.104082 93.515891 
L 269.797959 98.727149 
L 275.491837 106.301728 
L 281.185714 115.744174 
L 286.879592 126.436854 
L 292.573469 137.680357 
L 298.267347 148.739241 
L 303.961224 158.890143 
L 309.655102 167.469089 
L 315.34898 173.914927 
L 321.042857 177.806035 
L 326.736735 178.887893 
L 332.430612 177.089736 
L 338.12449 172.529184 
L 343.818367 165.504542 
L 349.512245 156.475294 
L 355.206122 146.032047 
L 360.9 134.857895 
" style="fill:none;stroke:#ff0000;stroke-linecap:square;stroke-width:2.0;"/>
   </g>
   <g id="line2d_11">
    <path clip-path="url(#p9104b1df76)" d="M 81.9 756 
L 81.9 86.4 
" style="fill:none;stroke:#000000;stroke-linecap:square;stroke-width:5.0;"/>
   </g>
   <g id="line2d_12">
    <path clip-path="url(#p9104b1df76)" d="M 360.9 756 
L 360.9 86.4 
" style="fill:none;stroke:#000000;stroke-linecap:square;stroke-width:5.0;"/>
   </g>
   <g id="text_1">
    <!-- 0 -->
    <defs>
     <path d="M 31.78125 66.40625 
Q 24.171875 66.40625 20.328125 58.90625 
Q 16.5 51.421875 16.5 36.375 
Q 16.5 21.390625 20.328125 13.890625 
Q 24.171875 6.390625 31.78125 6.390625 
Q 39.453125 6.390625 43.28125 13.890625 
Q 47.125 21.390625 47.125 36.375 
Q 47.125 51.421875 43.28125 58.90625 
Q 39.453125 66.40625 31.78125 66.40625 
M 31.78125 74.21875 
Q 44.046875 74.21875 50.515625 64.515625 
Q 56.984375 54.828125 56.984375 36.375 
Q 56.984375 17.96875 50.515625 8.265625 
Q 44.046875 -1.421875 31.78125 -1.421875 
Q 19.53125 -1.421875 13.0625 8.265625 
Q 6.59375 17.96875 6.59375 36.375 
Q 6.59375 54.828125 13.0625 64.515625 
Q 19.53125 74.21875 31.78125 74.21875 
" id="BitstreamVeraSans-Roman-30"/>
    </defs>
    <g transform="translate(67.95 773.621052632)scale(0.24 -0.24)">
     <use xlink:href="#BitstreamVeraSans-Roman-30"/>
    </g>
   </g>
   <g id="text_2">
    <!-- L -->
    <defs>
     <path d="M 9.8125 72.90625 
L 19.671875 72.90625 
L 19.671875 8.296875 
L 55.171875 8.296875 
L 55.171875 0 
L 9.8125 0 
z
" id="BitstreamVeraSans-Roman-4c"/>
    </defs>
    <g transform="translate(360.9 773.621052632)scale(0.24 -0.24)">
     <use xlink:href="#BitstreamVeraSans-Roman-4c"/>
    </g>
   </g>
   <g id="text_3">
    <!-- Denge (Taban) Durumu -->
    <defs>
     <path id="BitstreamVeraSans-Roman-20"/>
     <path d="M 54.890625 33.015625 
L 54.890625 0 
L 45.90625 0 
L 45.90625 32.71875 
Q 45.90625 40.484375 42.875 44.328125 
Q 39.84375 48.1875 33.796875 48.1875 
Q 26.515625 48.1875 22.3125 43.546875 
Q 18.109375 38.921875 18.109375 30.90625 
L 18.109375 0 
L 9.078125 0 
L 9.078125 54.6875 
L 18.109375 54.6875 
L 18.109375 46.1875 
Q 21.34375 51.125 25.703125 53.5625 
Q 30.078125 56 35.796875 56 
Q 45.21875 56 50.046875 50.171875 
Q 54.890625 44.34375 54.890625 33.015625 
" id="BitstreamVeraSans-Roman-6e"/>
     <path d="M 31 75.875 
Q 24.46875 64.65625 21.28125 53.65625 
Q 18.109375 42.671875 18.109375 31.390625 
Q 18.109375 20.125 21.3125 9.0625 
Q 24.515625 -2 31 -13.1875 
L 23.1875 -13.1875 
Q 15.875 -1.703125 12.234375 9.375 
Q 8.59375 20.453125 8.59375 31.390625 
Q 8.59375 42.28125 12.203125 53.3125 
Q 15.828125 64.359375 23.1875 75.875 
z
" id="BitstreamVeraSans-Roman-28"/>
     <path d="M 8.015625 75.875 
L 15.828125 75.875 
Q 23.140625 64.359375 26.78125 53.3125 
Q 30.421875 42.28125 30.421875 31.390625 
Q 30.421875 20.453125 26.78125 9.375 
Q 23.140625 -1.703125 15.828125 -13.1875 
L 8.015625 -13.1875 
Q 14.5 -2 17.703125 9.0625 
Q 20.90625 20.125 20.90625 31.390625 
Q 20.90625 42.671875 17.703125 53.65625 
Q 14.5 64.65625 8.015625 75.875 
" id="BitstreamVeraSans-Roman-29"/>
     <path d="M 19.671875 64.796875 
L 19.671875 8.109375 
L 31.59375 8.109375 
Q 46.6875 8.109375 53.6875 14.9375 
Q 60.6875 21.78125 60.6875 36.53125 
Q 60.6875 51.171875 53.6875 57.984375 
Q 46.6875 64.796875 31.59375 64.796875 
z
M 9.8125 72.90625 
L 30.078125 72.90625 
Q 51.265625 72.90625 61.171875 64.09375 
Q 71.09375 55.28125 71.09375 36.53125 
Q 71.09375 17.671875 61.125 8.828125 
Q 51.171875 0 30.078125 0 
L 9.8125 0 
z
" id="BitstreamVeraSans-Roman-44"/>
     <path d="M -0.296875 72.90625 
L 61.375 72.90625 
L 61.375 64.59375 
L 35.5 64.59375 
L 35.5 0 
L 25.59375 0 
L 25.59375 64.59375 
L -0.296875 64.59375 
z
" id="BitstreamVeraSans-Roman-54"/>
     <path d="M 41.109375 46.296875 
Q 39.59375 47.171875 37.8125 47.578125 
Q 36.03125 48 33.890625 48 
Q 26.265625 48 22.1875 43.046875 
Q 18.109375 38.09375 18.109375 28.8125 
L 18.109375 0 
L 9.078125 0 
L 9.078125 54.6875 
L 18.109375 54.6875 
L 18.109375 46.1875 
Q 20.953125 51.171875 25.484375 53.578125 
Q 30.03125 56 36.53125 56 
Q 37.453125 56 38.578125 55.875 
Q 39.703125 55.765625 41.0625 55.515625 
z
" id="BitstreamVeraSans-Roman-72"/>
     <path d="M 52 44.1875 
Q 55.375 50.25 60.0625 53.125 
Q 64.75 56 71.09375 56 
Q 79.640625 56 84.28125 50.015625 
Q 88.921875 44.046875 88.921875 33.015625 
L 88.921875 0 
L 79.890625 0 
L 79.890625 32.71875 
Q 79.890625 40.578125 77.09375 44.375 
Q 74.3125 48.1875 68.609375 48.1875 
Q 61.625 48.1875 57.5625 43.546875 
Q 53.515625 38.921875 53.515625 30.90625 
L 53.515625 0 
L 44.484375 0 
L 44.484375 32.71875 
Q 44.484375 40.625 41.703125 44.40625 
Q 38.921875 48.1875 33.109375 48.1875 
Q 26.21875 48.1875 22.15625 43.53125 
Q 18.109375 38.875 18.109375 30.90625 
L 18.109375 0 
L 9.078125 0 
L 9.078125 54.6875 
L 18.109375 54.6875 
L 18.109375 46.1875 
Q 21.1875 51.21875 25.484375 53.609375 
Q 29.78125 56 35.6875 56 
Q 41.65625 56 45.828125 52.96875 
Q 50 49.953125 52 44.1875 
" id="BitstreamVeraSans-Roman-6d"/>
     <path d="M 56.203125 29.59375 
L 56.203125 25.203125 
L 14.890625 25.203125 
Q 15.484375 15.921875 20.484375 11.0625 
Q 25.484375 6.203125 34.421875 6.203125 
Q 39.59375 6.203125 44.453125 7.46875 
Q 49.3125 8.734375 54.109375 11.28125 
L 54.109375 2.78125 
Q 49.265625 0.734375 44.1875 -0.34375 
Q 39.109375 -1.421875 33.890625 -1.421875 
Q 20.796875 -1.421875 13.15625 6.1875 
Q 5.515625 13.8125 5.515625 26.8125 
Q 5.515625 40.234375 12.765625 48.109375 
Q 20.015625 56 32.328125 56 
Q 43.359375 56 49.78125 48.890625 
Q 56.203125 41.796875 56.203125 29.59375 
M 47.21875 32.234375 
Q 47.125 39.59375 43.09375 43.984375 
Q 39.0625 48.390625 32.421875 48.390625 
Q 24.90625 48.390625 20.390625 44.140625 
Q 15.875 39.890625 15.1875 32.171875 
z
" id="BitstreamVeraSans-Roman-65"/>
     <path d="M 45.40625 27.984375 
Q 45.40625 37.75 41.375 43.109375 
Q 37.359375 48.484375 30.078125 48.484375 
Q 22.859375 48.484375 18.828125 43.109375 
Q 14.796875 37.75 14.796875 27.984375 
Q 14.796875 18.265625 18.828125 12.890625 
Q 22.859375 7.515625 30.078125 7.515625 
Q 37.359375 7.515625 41.375 12.890625 
Q 45.40625 18.265625 45.40625 27.984375 
M 54.390625 6.78125 
Q 54.390625 -7.171875 48.1875 -13.984375 
Q 42 -20.796875 29.203125 -20.796875 
Q 24.46875 -20.796875 20.265625 -20.09375 
Q 16.0625 -19.390625 12.109375 -17.921875 
L 12.109375 -9.1875 
Q 16.0625 -11.328125 19.921875 -12.34375 
Q 23.78125 -13.375 27.78125 -13.375 
Q 36.625 -13.375 41.015625 -8.765625 
Q 45.40625 -4.15625 45.40625 5.171875 
L 45.40625 9.625 
Q 42.625 4.78125 38.28125 2.390625 
Q 33.9375 0 27.875 0 
Q 17.828125 0 11.671875 7.65625 
Q 5.515625 15.328125 5.515625 27.984375 
Q 5.515625 40.671875 11.671875 48.328125 
Q 17.828125 56 27.875 56 
Q 33.9375 56 38.28125 53.609375 
Q 42.625 51.21875 45.40625 46.390625 
L 45.40625 54.6875 
L 54.390625 54.6875 
z
" id="BitstreamVeraSans-Roman-67"/>
     <path d="M 8.5 21.578125 
L 8.5 54.6875 
L 17.484375 54.6875 
L 17.484375 21.921875 
Q 17.484375 14.15625 20.5 10.265625 
Q 23.53125 6.390625 29.59375 6.390625 
Q 36.859375 6.390625 41.078125 11.03125 
Q 45.3125 15.671875 45.3125 23.6875 
L 45.3125 54.6875 
L 54.296875 54.6875 
L 54.296875 0 
L 45.3125 0 
L 45.3125 8.40625 
Q 42.046875 3.421875 37.71875 1 
Q 33.40625 -1.421875 27.6875 -1.421875 
Q 18.265625 -1.421875 13.375 4.4375 
Q 8.5 10.296875 8.5 21.578125 
" id="BitstreamVeraSans-Roman-75"/>
     <path d="M 34.28125 27.484375 
Q 23.390625 27.484375 19.1875 25 
Q 14.984375 22.515625 14.984375 16.5 
Q 14.984375 11.71875 18.140625 8.90625 
Q 21.296875 6.109375 26.703125 6.109375 
Q 34.1875 6.109375 38.703125 11.40625 
Q 43.21875 16.703125 43.21875 25.484375 
L 43.21875 27.484375 
z
M 52.203125 31.203125 
L 52.203125 0 
L 43.21875 0 
L 43.21875 8.296875 
Q 40.140625 3.328125 35.546875 0.953125 
Q 30.953125 -1.421875 24.3125 -1.421875 
Q 15.921875 -1.421875 10.953125 3.296875 
Q 6 8.015625 6 15.921875 
Q 6 25.140625 12.171875 29.828125 
Q 18.359375 34.515625 30.609375 34.515625 
L 43.21875 34.515625 
L 43.21875 35.40625 
Q 43.21875 41.609375 39.140625 45 
Q 35.0625 48.390625 27.6875 48.390625 
Q 23 48.390625 18.546875 47.265625 
Q 14.109375 46.140625 10.015625 43.890625 
L 10.015625 52.203125 
Q 14.9375 54.109375 19.578125 55.046875 
Q 24.21875 56 28.609375 56 
Q 40.484375 56 46.34375 49.84375 
Q 52.203125 43.703125 52.203125 31.203125 
" id="BitstreamVeraSans-Roman-61"/>
     <path d="M 48.6875 27.296875 
Q 48.6875 37.203125 44.609375 42.84375 
Q 40.53125 48.484375 33.40625 48.484375 
Q 26.265625 48.484375 22.1875 42.84375 
Q 18.109375 37.203125 18.109375 27.296875 
Q 18.109375 17.390625 22.1875 11.75 
Q 26.265625 6.109375 33.40625 6.109375 
Q 40.53125 6.109375 44.609375 11.75 
Q 48.6875 17.390625 48.6875 27.296875 
M 18.109375 46.390625 
Q 20.953125 51.265625 25.265625 53.625 
Q 29.59375 56 35.59375 56 
Q 45.5625 56 51.78125 48.09375 
Q 58.015625 40.1875 58.015625 27.296875 
Q 58.015625 14.40625 51.78125 6.484375 
Q 45.5625 -1.421875 35.59375 -1.421875 
Q 29.59375 -1.421875 25.265625 0.953125 
Q 20.953125 3.328125 18.109375 8.203125 
L 18.109375 0 
L 9.078125 0 
L 9.078125 75.984375 
L 18.109375 75.984375 
z
" id="BitstreamVeraSans-Roman-62"/>
    </defs>
    <g transform="translate(101.43 729.568421053)scale(0.2 -0.2)">
     <use xlink:href="#BitstreamVeraSans-Roman-44"/>
     <use x="77.001953125" xlink:href="#BitstreamVeraSans-Roman-65"/>
     <use x="138.525390625" xlink:href="#BitstreamVeraSans-Roman-6e"/>
     <use x="201.904296875" xlink:href="#BitstreamVeraSans-Roman-67"/>
     <use x="265.380859375" xlink:href="#BitstreamVeraSans-Roman-65"/>
     <use x="326.904296875" xlink:href="#BitstreamVeraSans-Roman-20"/>
     <use x="358.69140625" xlink:href="#BitstreamVeraSans-Roman-28"/>
     <use x="397.705078125" xlink:href="#BitstreamVeraSans-Roman-54"/>
     <use x="458.5390625" xlink:href="#BitstreamVeraSans-Roman-61"/>
     <use x="519.818359375" xlink:href="#BitstreamVeraSans-Roman-62"/>
     <use x="583.294921875" xlink:href="#BitstreamVeraSans-Roman-61"/>
     <use x="644.57421875" xlink:href="#BitstreamVeraSans-Roman-6e"/>
     <use x="707.953125" xlink:href="#BitstreamVeraSans-Roman-29"/>
     <use x="746.966796875" xlink:href="#BitstreamVeraSans-Roman-20"/>
     <use x="778.75390625" xlink:href="#BitstreamVeraSans-Roman-44"/>
     <use x="855.755859375" xlink:href="#BitstreamVeraSans-Roman-75"/>
     <use x="919.134765625" xlink:href="#BitstreamVeraSans-Roman-72"/>
     <use x="960.248046875" xlink:href="#BitstreamVeraSans-Roman-75"/>
     <use x="1023.62695312" xlink:href="#BitstreamVeraSans-Roman-6d"/>
     <use x="1121.0390625" xlink:href="#BitstreamVeraSans-Roman-75"/>
    </g>
   </g>
   <g id="text_4">
    <!-- $\lambda_1 = 2 L$ -->
    <defs>
     <path d="M 41.5 12.296875 
L 43.09375 12.296875 
Q 40 -1.59375 33 -1.59375 
Q 30.703125 -1.59375 29.203125 0.75 
Q 27.703125 3.09375 27.703125 7.796875 
Q 27.703125 10.5 27.953125 13.890625 
Q 28.203125 17.296875 28.640625 22.59375 
Q 29.09375 27.90625 29.296875 31.5 
L 8.40625 0 
L -1.203125 0 
L 29.796875 42.796875 
Q 30.203125 46.40625 30.203125 50.703125 
Q 30.203125 61.5 25.296875 61.5 
Q 23.90625 61.5 22 59.703125 
Q 20.09375 57.90625 18.796875 54.09375 
L 17.203125 54.09375 
Q 20.5 67.796875 27.296875 67.796875 
Q 30.09375 67.796875 31.890625 64.296875 
Q 33.703125 60.796875 33.703125 54.296875 
Q 33.703125 47.5 32.703125 34.25 
Q 31.703125 21 31.703125 14.703125 
Q 31.703125 9.40625 32.640625 7.046875 
Q 33.59375 4.703125 35.796875 4.703125 
Q 38.796875 4.703125 41.5 12.296875 
" id="STIXGeneral-Italic-3bb"/>
     <path d="M 47.40625 13.703125 
L 42 0 
L 2.90625 0 
L 2.90625 1.203125 
L 20.703125 20.09375 
Q 27.703125 27.40625 30.703125 33.5 
Q 33.703125 39.59375 33.703125 46.09375 
Q 33.703125 52.796875 30 56.5 
Q 26.296875 60.203125 19.796875 60.203125 
Q 14.40625 60.203125 11.25 57.390625 
Q 8.09375 54.59375 5.09375 47.203125 
L 3 47.703125 
Q 4.703125 57 9.84375 62.296875 
Q 15 67.59375 23.796875 67.59375 
Q 32.09375 67.59375 37.1875 62.59375 
Q 42.296875 57.59375 42.296875 50 
Q 42.296875 38.703125 29.5 25.203125 
L 13 7.59375 
L 36.40625 7.59375 
Q 39.703125 7.59375 41.640625 8.890625 
Q 43.59375 10.203125 46 14.296875 
z
" id="STIXGeneral-Regular-32"/>
     <path d="M 39.40625 0 
L 11.796875 0 
L 11.796875 1.5 
Q 17.296875 1.796875 19.296875 3.546875 
Q 21.296875 5.296875 21.296875 9.5 
L 21.296875 54.40625 
Q 21.296875 59.296875 18.296875 59.296875 
Q 16.90625 59.296875 13.796875 58.09375 
L 11.09375 57.09375 
L 11.09375 58.5 
L 29 67.59375 
L 29.90625 67.296875 
L 29.90625 7.59375 
Q 29.90625 4.296875 31.90625 2.890625 
Q 33.90625 1.5 39.40625 1.5 
z
" id="STIXGeneral-Regular-31"/>
     <path d="M 55.90625 18 
L 50.09375 0 
L -0.796875 0 
L -0.796875 1.59375 
Q 3.40625 2 4.703125 3.296875 
Q 6 4.59375 7.40625 9.40625 
L 19.59375 53.203125 
Q 20.703125 56.90625 20.703125 59.40625 
Q 20.703125 61.59375 19.140625 62.5 
Q 17.59375 63.40625 13 63.703125 
L 13 65.296875 
L 40.296875 65.296875 
L 40.296875 63.703125 
Q 35.703125 63.40625 33.546875 61.796875 
Q 31.40625 60.203125 30.203125 56 
L 18.203125 13.09375 
Q 17.203125 9.296875 17.203125 7.703125 
Q 17.203125 5.40625 19.390625 4.5 
Q 21.59375 3.59375 27.703125 3.59375 
Q 35.40625 3.59375 38.75 4.296875 
Q 42.09375 5 45.703125 7.40625 
Q 49.796875 10.09375 53.90625 18.59375 
z
" id="STIXGeneral-Italic-4c"/>
     <path d="M 63.703125 32 
L 4.796875 32 
L 4.796875 38.59375 
L 63.703125 38.59375 
z
M 63.703125 12 
L 4.796875 12 
L 4.796875 18.59375 
L 63.703125 18.59375 
z
" id="STIXGeneral-Regular-3d"/>
    </defs>
    <g transform="translate(179.55 632.652631579)scale(0.24 -0.24)">
     <use transform="translate(0.0 0.203125)" xlink:href="#STIXGeneral-Italic-3bb"/>
     <use transform="translate(45.799987793 -13.025)scale(0.7)" xlink:href="#STIXGeneral-Regular-31"/>
     <use transform="translate(99.6493484497 0.203125)" xlink:href="#STIXGeneral-Regular-3d"/>
     <use transform="translate(182.589329529 0.203125)" xlink:href="#STIXGeneral-Regular-32"/>
     <use transform="translate(232.58931427 0.203125)" xlink:href="#STIXGeneral-Italic-4c"/>
    </g>
   </g>
   <g id="text_5">
    <!-- $\lambda_2 = L$ -->
    <g transform="translate(179.55 482.873684211)scale(0.24 -0.24)">
     <use transform="translate(0.0 0.203125)" xlink:href="#STIXGeneral-Italic-3bb"/>
     <use transform="translate(45.799987793 -13.025)scale(0.7)" xlink:href="#STIXGeneral-Regular-32"/>
     <use transform="translate(99.6493484497 0.203125)" xlink:href="#STIXGeneral-Regular-3d"/>
     <use transform="translate(182.589329529 0.203125)" xlink:href="#STIXGeneral-Italic-4c"/>
    </g>
   </g>
   <g id="text_6">
    <!-- $\lambda_3 = {2L/3}$ -->
    <defs>
     <path d="M 28.703125 67.59375 
L 5.90625 -1.40625 
L -0.90625 -1.40625 
L 22 67.59375 
z
" id="STIXGeneral-Regular-2f"/>
     <path d="M 6.09375 51 
L 4.5 51.40625 
Q 6.796875 58.90625 11.6875 63.25 
Q 16.59375 67.59375 24.09375 67.59375 
Q 31.09375 67.59375 35.390625 63.796875 
Q 39.703125 60 39.703125 53.90625 
Q 39.703125 45.703125 30.40625 40.09375 
Q 35.90625 37.703125 38.703125 34.796875 
Q 43.09375 29.90625 43.09375 21.90625 
Q 43.09375 13.90625 38.5 7.90625 
Q 35.09375 3.296875 28.75 0.9375 
Q 22.40625 -1.40625 15.296875 -1.40625 
Q 4.09375 -1.40625 4.09375 4.296875 
Q 4.09375 5.90625 5.296875 6.90625 
Q 6.5 7.90625 8.203125 7.90625 
Q 10.703125 7.90625 14.296875 5.296875 
Q 18.703125 2.203125 22.90625 2.203125 
Q 28.40625 2.203125 32.15625 6.640625 
Q 35.90625 11.09375 35.90625 17.5 
Q 35.90625 29 25.5 32 
Q 22.40625 33 15.296875 33 
L 15.296875 34.40625 
Q 20.90625 36.296875 23.703125 38 
Q 31.796875 42.59375 31.796875 51.40625 
Q 31.796875 56.40625 28.9375 59 
Q 26.09375 61.59375 21 61.59375 
Q 12 61.59375 6.09375 51 
" id="STIXGeneral-Regular-33"/>
    </defs>
    <g transform="translate(179.55 363.931578947)scale(0.24 -0.24)">
     <use transform="translate(0.0 0.203125)" xlink:href="#STIXGeneral-Italic-3bb"/>
     <use transform="translate(45.799987793 -13.025)scale(0.7)" xlink:href="#STIXGeneral-Regular-33"/>
     <use transform="translate(99.6493484497 0.203125)" xlink:href="#STIXGeneral-Regular-3d"/>
     <use transform="translate(182.589329529 0.203125)" xlink:href="#STIXGeneral-Regular-32"/>
     <use transform="translate(232.58931427 0.203125)" xlink:href="#STIXGeneral-Italic-4c"/>
     <use transform="translate(288.189305115 0.203125)" xlink:href="#STIXGeneral-Regular-2f"/>
     <use transform="translate(315.989292908 0.203125)" xlink:href="#STIXGeneral-Regular-33"/>
    </g>
   </g>
   <g id="text_7">
    <!-- $\lambda_4 = {L/2}$ -->
    <defs>
     <path d="M 47.296875 16.703125 
L 37 16.703125 
L 37 0 
L 29.203125 0 
L 29.203125 16.703125 
L 1.203125 16.703125 
L 1.203125 23.09375 
L 32.59375 67.59375 
L 37 67.59375 
L 37 23.09375 
L 47.296875 23.09375 
z
M 29.203125 23.09375 
L 29.203125 57.40625 
L 5.203125 23.09375 
z
" id="STIXGeneral-Regular-34"/>
    </defs>
    <g transform="translate(179.55 205.342105263)scale(0.24 -0.24)">
     <use transform="translate(0.0 0.203125)" xlink:href="#STIXGeneral-Italic-3bb"/>
     <use transform="translate(45.799987793 -13.025)scale(0.7)" xlink:href="#STIXGeneral-Regular-34"/>
     <use transform="translate(99.6493484497 0.203125)" xlink:href="#STIXGeneral-Regular-3d"/>
     <use transform="translate(182.589329529 0.203125)" xlink:href="#STIXGeneral-Italic-4c"/>
     <use transform="translate(238.189320374 0.203125)" xlink:href="#STIXGeneral-Regular-2f"/>
     <use transform="translate(265.989308167 0.203125)" xlink:href="#STIXGeneral-Regular-32"/>
    </g>
   </g>
   <g id="text_8">
    <!-- İki ucu sabit bir ipin duran dalga kipleri -->
    <defs>
     <path d="M 9.421875 75.984375 
L 18.40625 75.984375 
L 18.40625 0 
L 9.421875 0 
z
" id="BitstreamVeraSans-Roman-6c"/>
     <path d="M 9.078125 75.984375 
L 18.109375 75.984375 
L 18.109375 31.109375 
L 44.921875 54.6875 
L 56.390625 54.6875 
L 27.390625 29.109375 
L 57.625 0 
L 45.90625 0 
L 18.109375 26.703125 
L 18.109375 0 
L 9.078125 0 
z
" id="BitstreamVeraSans-Roman-6b"/>
     <path d="M 9.421875 54.6875 
L 18.40625 54.6875 
L 18.40625 0 
L 9.421875 0 
z
M 9.421875 75.984375 
L 18.40625 75.984375 
L 18.40625 64.59375 
L 9.421875 64.59375 
z
" id="BitstreamVeraSans-Roman-69"/>
     <path d="M 18.109375 8.203125 
L 18.109375 -20.796875 
L 9.078125 -20.796875 
L 9.078125 54.6875 
L 18.109375 54.6875 
L 18.109375 46.390625 
Q 20.953125 51.265625 25.265625 53.625 
Q 29.59375 56 35.59375 56 
Q 45.5625 56 51.78125 48.09375 
Q 58.015625 40.1875 58.015625 27.296875 
Q 58.015625 14.40625 51.78125 6.484375 
Q 45.5625 -1.421875 35.59375 -1.421875 
Q 29.59375 -1.421875 25.265625 0.953125 
Q 20.953125 3.328125 18.109375 8.203125 
M 48.6875 27.296875 
Q 48.6875 37.203125 44.609375 42.84375 
Q 40.53125 48.484375 33.40625 48.484375 
Q 26.265625 48.484375 22.1875 42.84375 
Q 18.109375 37.203125 18.109375 27.296875 
Q 18.109375 17.390625 22.1875 11.75 
Q 26.265625 6.109375 33.40625 6.109375 
Q 40.53125 6.109375 44.609375 11.75 
Q 48.6875 17.390625 48.6875 27.296875 
" id="BitstreamVeraSans-Roman-70"/>
     <path d="M 45.40625 46.390625 
L 45.40625 75.984375 
L 54.390625 75.984375 
L 54.390625 0 
L 45.40625 0 
L 45.40625 8.203125 
Q 42.578125 3.328125 38.25 0.953125 
Q 33.9375 -1.421875 27.875 -1.421875 
Q 17.96875 -1.421875 11.734375 6.484375 
Q 5.515625 14.40625 5.515625 27.296875 
Q 5.515625 40.1875 11.734375 48.09375 
Q 17.96875 56 27.875 56 
Q 33.9375 56 38.25 53.625 
Q 42.578125 51.265625 45.40625 46.390625 
M 14.796875 27.296875 
Q 14.796875 17.390625 18.875 11.75 
Q 22.953125 6.109375 30.078125 6.109375 
Q 37.203125 6.109375 41.296875 11.75 
Q 45.40625 17.390625 45.40625 27.296875 
Q 45.40625 37.203125 41.296875 42.84375 
Q 37.203125 48.484375 30.078125 48.484375 
Q 22.953125 48.484375 18.875 42.84375 
Q 14.796875 37.203125 14.796875 27.296875 
" id="BitstreamVeraSans-Roman-64"/>
     <path d="M 18.3125 70.21875 
L 18.3125 54.6875 
L 36.8125 54.6875 
L 36.8125 47.703125 
L 18.3125 47.703125 
L 18.3125 18.015625 
Q 18.3125 11.328125 20.140625 9.421875 
Q 21.96875 7.515625 27.59375 7.515625 
L 36.8125 7.515625 
L 36.8125 0 
L 27.59375 0 
Q 17.1875 0 13.234375 3.875 
Q 9.28125 7.765625 9.28125 18.015625 
L 9.28125 47.703125 
L 2.6875 47.703125 
L 2.6875 54.6875 
L 9.28125 54.6875 
L 9.28125 70.21875 
z
" id="BitstreamVeraSans-Roman-74"/>
     <path d="M 9.8125 72.90625 
L 19.671875 72.90625 
L 19.671875 0 
L 9.8125 0 
z
M 9.765625 91.1875 
L 19.734375 91.1875 
L 19.734375 81.1875 
L 9.765625 81.1875 
z
" id="BitstreamVeraSans-Roman-130"/>
     <path d="M 44.28125 53.078125 
L 44.28125 44.578125 
Q 40.484375 46.53125 36.375 47.5 
Q 32.28125 48.484375 27.875 48.484375 
Q 21.1875 48.484375 17.84375 46.4375 
Q 14.5 44.390625 14.5 40.28125 
Q 14.5 37.15625 16.890625 35.375 
Q 19.28125 33.59375 26.515625 31.984375 
L 29.59375 31.296875 
Q 39.15625 29.25 43.1875 25.515625 
Q 47.21875 21.78125 47.21875 15.09375 
Q 47.21875 7.46875 41.1875 3.015625 
Q 35.15625 -1.421875 24.609375 -1.421875 
Q 20.21875 -1.421875 15.453125 -0.5625 
Q 10.6875 0.296875 5.421875 2 
L 5.421875 11.28125 
Q 10.40625 8.6875 15.234375 7.390625 
Q 20.0625 6.109375 24.8125 6.109375 
Q 31.15625 6.109375 34.5625 8.28125 
Q 37.984375 10.453125 37.984375 14.40625 
Q 37.984375 18.0625 35.515625 20.015625 
Q 33.0625 21.96875 24.703125 23.78125 
L 21.578125 24.515625 
Q 13.234375 26.265625 9.515625 29.90625 
Q 5.8125 33.546875 5.8125 39.890625 
Q 5.8125 47.609375 11.28125 51.796875 
Q 16.75 56 26.8125 56 
Q 31.78125 56 36.171875 55.265625 
Q 40.578125 54.546875 44.28125 53.078125 
" id="BitstreamVeraSans-Roman-73"/>
     <path d="M 48.78125 52.59375 
L 48.78125 44.1875 
Q 44.96875 46.296875 41.140625 47.34375 
Q 37.3125 48.390625 33.40625 48.390625 
Q 24.65625 48.390625 19.8125 42.84375 
Q 14.984375 37.3125 14.984375 27.296875 
Q 14.984375 17.28125 19.8125 11.734375 
Q 24.65625 6.203125 33.40625 6.203125 
Q 37.3125 6.203125 41.140625 7.25 
Q 44.96875 8.296875 48.78125 10.40625 
L 48.78125 2.09375 
Q 45.015625 0.34375 40.984375 -0.53125 
Q 36.96875 -1.421875 32.421875 -1.421875 
Q 20.0625 -1.421875 12.78125 6.34375 
Q 5.515625 14.109375 5.515625 27.296875 
Q 5.515625 40.671875 12.859375 48.328125 
Q 20.21875 56 33.015625 56 
Q 37.15625 56 41.109375 55.140625 
Q 45.0625 54.296875 48.78125 52.59375 
" id="BitstreamVeraSans-Roman-63"/>
    </defs>
    <g transform="translate(67.95 800.052631579)scale(0.16 -0.16)">
     <use xlink:href="#BitstreamVeraSans-Roman-130"/>
     <use x="29.4921875" xlink:href="#BitstreamVeraSans-Roman-6b"/>
     <use x="87.40234375" xlink:href="#BitstreamVeraSans-Roman-69"/>
     <use x="115.185546875" xlink:href="#BitstreamVeraSans-Roman-20"/>
     <use x="146.97265625" xlink:href="#BitstreamVeraSans-Roman-75"/>
     <use x="210.3515625" xlink:href="#BitstreamVeraSans-Roman-63"/>
     <use x="265.33203125" xlink:href="#BitstreamVeraSans-Roman-75"/>
     <use x="328.7109375" xlink:href="#BitstreamVeraSans-Roman-20"/>
     <use x="360.498046875" xlink:href="#BitstreamVeraSans-Roman-73"/>
     <use x="412.59765625" xlink:href="#BitstreamVeraSans-Roman-61"/>
     <use x="473.876953125" xlink:href="#BitstreamVeraSans-Roman-62"/>
     <use x="537.353515625" xlink:href="#BitstreamVeraSans-Roman-69"/>
     <use x="565.13671875" xlink:href="#BitstreamVeraSans-Roman-74"/>
     <use x="604.345703125" xlink:href="#BitstreamVeraSans-Roman-20"/>
     <use x="636.1328125" xlink:href="#BitstreamVeraSans-Roman-62"/>
     <use x="699.609375" xlink:href="#BitstreamVeraSans-Roman-69"/>
     <use x="727.392578125" xlink:href="#BitstreamVeraSans-Roman-72"/>
     <use x="768.505859375" xlink:href="#BitstreamVeraSans-Roman-20"/>
     <use x="800.29296875" xlink:href="#BitstreamVeraSans-Roman-69"/>
     <use x="828.076171875" xlink:href="#BitstreamVeraSans-Roman-70"/>
     <use x="891.552734375" xlink:href="#BitstreamVeraSans-Roman-69"/>
     <use x="919.3359375" xlink:href="#BitstreamVeraSans-Roman-6e"/>
     <use x="982.71484375" xlink:href="#BitstreamVeraSans-Roman-20"/>
     <use x="1014.50195312" xlink:href="#BitstreamVeraSans-Roman-64"/>
     <use x="1077.97851562" xlink:href="#BitstreamVeraSans-Roman-75"/>
     <use x="1141.35742188" xlink:href="#BitstreamVeraSans-Roman-72"/>
     <use x="1182.47070312" xlink:href="#BitstreamVeraSans-Roman-61"/>
     <use x="1243.75" xlink:href="#BitstreamVeraSans-Roman-6e"/>
     <use x="1307.12890625" xlink:href="#BitstreamVeraSans-Roman-20"/>
     <use x="1338.91601562" xlink:href="#BitstreamVeraSans-Roman-64"/>
     <use x="1402.39257812" xlink:href="#BitstreamVeraSans-Roman-61"/>
     <use x="1463.671875" xlink:href="#BitstreamVeraSans-Roman-6c"/>
     <use x="1491.45507812" xlink:href="#BitstreamVeraSans-Roman-67"/>
     <use x="1554.93164062" xlink:href="#BitstreamVeraSans-Roman-61"/>
     <use x="1616.2109375" xlink:href="#BitstreamVeraSans-Roman-20"/>
     <use x="1647.99804688" xlink:href="#BitstreamVeraSans-Roman-6b"/>
     <use x="1705.90820312" xlink:href="#BitstreamVeraSans-Roman-69"/>
     <use x="1733.69140625" xlink:href="#BitstreamVeraSans-Roman-70"/>
     <use x="1797.16796875" xlink:href="#BitstreamVeraSans-Roman-6c"/>
     <use x="1824.95117188" xlink:href="#BitstreamVeraSans-Roman-65"/>
     <use x="1886.47460938" xlink:href="#BitstreamVeraSans-Roman-72"/>
     <use x="1927.58789062" xlink:href="#BitstreamVeraSans-Roman-69"/>
    </g>
   </g>
  </g>
 </g>
 <defs>
  <clipPath id="p9104b1df76">
   <rect height="669.6" width="334.8" x="54.0" y="86.4"/>
  </clipPath>
 </defs>
 <defs>
  <pattern height="72" id="h9af6203187" patternUnits="userSpaceOnUse" width="72" x="0" y="0">
   <rect fill="#ffffff" height="73" width="73" x="0" y="0"/>
   <path d="M -36 36 
L 36 -36 
M -24 48 
L 48 -24 
M -12 60 
L 60 -12 
M 0 72 
L 72 0 
M 12 84 
L 84 12 
M 24 96 
L 96 24 
M 36 108 
L 108 36 
" style="fill:#000000;stroke:#000000;stroke-linecap:butt;stroke-linejoin:miter;stroke-width:1.0;"/>
  </pattern>
  <pattern height="72" id="h2e68de6b85" patternUnits="userSpaceOnUse" width="72" x="0" y="0">
   <rect fill="#ffffff" height="73" width="73" x="0" y="0"/>
   <path d="M -36 36 
L 36 108 
M -24 24 
L 48 96 
M -12 12 
L 60 84 
M 0 0 
L 72 72 
M 12 -12 
L 84 60 
M 24 -24 
L 96 48 
M 36 -36 
L 108 36 
" style="fill:#000000;stroke:#000000;stroke-linecap:butt;stroke-linejoin:miter;stroke-width:1.0;"/>
  </pattern>
 </defs>
</svg>
